<svg width="390" height="844" viewBox="0 0 390 844" fill="none" xmlns="http://www.w3.org/2000/svg">
<g clip-path="url(#clip0_111_839)">
<rect width="390" height="844" fill="#FBFEFF"/>
<g filter="url(#filter0_d_111_839)">
<path d="M460.237 371.384V655.505H-22.0137V490.667H19.8227V553.928H30.5931V518.122H83.7901V574.827H90.832V351.001H137.067V478.265H160.776V523.721H167.956V495.137H209.99V580.426H222.277V511.098H260.721V458.422H286.857V428.437H317.095V561.468H327.273V415.195H377.078V494.664H383.962V429.807H434.477V371.384H460.237Z" fill="#EBEBEB"/>
<path d="M2.46219 498.625H-4.61646V510.719H2.46219V498.625Z" fill="white"/>
<path d="M14.7312 498.625H7.65259V510.719H14.7312V498.625Z" fill="white"/>
<path d="M2.46219 516.823H-4.61646V528.917H2.46219V516.823Z" fill="white"/>
<path d="M14.7312 516.823H7.65259V528.917H14.7312V516.823Z" fill="white"/>
<path d="M2.46219 535.019H-4.61646V547.113H2.46219V535.019Z" fill="white"/>
<path d="M14.7312 535.019H7.65259V547.113H14.7312V535.019Z" fill="white"/>
<path d="M2.46219 553.217H-4.61646V565.311H2.46219V553.217Z" fill="white"/>
<path d="M14.7312 553.217H7.65259V565.311H14.7312V553.217Z" fill="white"/>
<path d="M235.263 519.733H228.184V529.822H235.263V519.733Z" fill="white"/>
<path d="M247.532 519.733H240.453V529.822H247.532V519.733Z" fill="white"/>
<path d="M259.801 519.733H252.722V529.822H259.801V519.733Z" fill="white"/>
<path d="M235.263 534.915H228.184V545.005H235.263V534.915Z" fill="white"/>
<path d="M247.532 534.915H240.453V545.005H247.532V534.915Z" fill="white"/>
<path d="M259.801 534.915H252.722V545.005H259.801V534.915Z" fill="white"/>
<path d="M235.263 550.096H228.184V560.185H235.263V550.096Z" fill="white"/>
<path d="M247.532 550.096H240.453V560.185H247.532V550.096Z" fill="white"/>
<path d="M259.801 550.096H252.722V560.185H259.801V550.096Z" fill="white"/>
<path d="M235.263 565.277H228.184V575.368H235.263V565.277Z" fill="white"/>
<path d="M247.532 565.277H240.453V575.368H247.532V565.277Z" fill="white"/>
<path d="M259.801 565.277H252.722V575.368H259.801V565.277Z" fill="white"/>
<path d="M235.263 580.835H228.184V590.926H235.263V580.835Z" fill="white"/>
<path d="M247.532 580.835H240.453V590.926H247.532V580.835Z" fill="white"/>
<path d="M259.801 580.835H252.722V590.926H259.801V580.835Z" fill="white"/>
<path d="M235.263 596.393H228.184V606.482H235.263V596.393Z" fill="white"/>
<path d="M247.532 596.393H240.453V606.482H247.532V596.393Z" fill="white"/>
<path d="M259.801 596.393H252.722V606.482H259.801V596.393Z" fill="white"/>
<path d="M235.263 611.95H228.184V622.039H235.263V611.95Z" fill="white"/>
<path d="M247.532 611.95H240.453V622.039H247.532V611.95Z" fill="white"/>
<path d="M259.801 611.95H252.722V622.039H259.801V611.95Z" fill="white"/>
<path d="M235.263 627.506H228.184V637.597H235.263V627.506Z" fill="white"/>
<path d="M247.532 627.506H240.453V637.597H247.532V627.506Z" fill="white"/>
<path d="M259.801 627.506H252.722V637.597H259.801V627.506Z" fill="white"/>
<path d="M77.3824 525.874H36.6321V533.438H77.3824V525.874Z" fill="white"/>
<path d="M77.3824 540.549H36.6321V548.113H77.3824V540.549Z" fill="white"/>
<path d="M77.3824 555.225H36.6321V562.789H77.3824V555.225Z" fill="white"/>
<path d="M77.3824 569.901H36.6321V577.466H77.3824V569.901Z" fill="white"/>
<path d="M77.3824 584.578H36.6321V592.142H77.3824V584.578Z" fill="white"/>
<path d="M77.3824 599.254H36.6321V606.819H77.3824V599.254Z" fill="white"/>
<path d="M77.3824 613.93H36.6321V621.495H77.3824V613.93Z" fill="white"/>
<path d="M77.3824 628.605H36.6321V636.17H77.3824V628.605Z" fill="white"/>
<path d="M370.755 422.258H333.29V429.823H370.755V422.258Z" fill="white"/>
<path d="M370.755 436.934H333.29V444.499H370.755V436.934Z" fill="white"/>
<path d="M370.755 451.609H333.29V459.172H370.755V451.609Z" fill="white"/>
<path d="M370.755 466.286H333.29V473.849H370.755V466.286Z" fill="white"/>
<path d="M370.755 480.962H333.29V488.527H370.755V480.962Z" fill="white"/>
<path d="M370.755 495.638H333.29V503.203H370.755V495.638Z" fill="white"/>
<path d="M370.755 510.315H333.29V517.879H370.755V510.315Z" fill="white"/>
<path d="M370.755 524.991H333.29V532.556H370.755V524.991Z" fill="white"/>
<path d="M370.755 538.936H333.29V546.5H370.755V538.936Z" fill="white"/>
<path d="M370.755 552.882H333.29V560.446H370.755V552.882Z" fill="white"/>
<path d="M370.755 566.826H333.29V574.391H370.755V566.826Z" fill="white"/>
<path d="M370.755 580.771H333.29V588.334H370.755V580.771Z" fill="white"/>
<path d="M192.831 501.986H180.249V509.292H192.831V501.986Z" fill="white"/>
<path d="M192.831 516.16H180.249V523.465H192.831V516.16Z" fill="white"/>
<path d="M192.831 530.331H180.249V537.637H192.831V530.331Z" fill="white"/>
<path d="M192.831 544.505H180.249V551.81H192.831V544.505Z" fill="white"/>
<path d="M192.831 558.678H180.249V565.983H192.831V558.678Z" fill="white"/>
<path d="M192.831 572.851H180.249V580.155H192.831V572.851Z" fill="white"/>
<path d="M192.831 587.025H180.249V594.328H192.831V587.025Z" fill="white"/>
<path d="M192.831 601.196H180.249V608.5H192.831V601.196Z" fill="white"/>
<path d="M209.955 501.986H197.373V509.292H209.955V501.986Z" fill="white"/>
<path d="M209.955 516.16H197.373V523.465H209.955V516.16Z" fill="white"/>
<path d="M209.955 530.331H197.373V537.637H209.955V530.331Z" fill="white"/>
<path d="M209.955 544.505H197.373V551.81H209.955V544.505Z" fill="white"/>
<path d="M209.955 558.678H197.373V565.983H209.955V558.678Z" fill="white"/>
<path d="M209.955 572.851H197.373V580.155H209.955V572.851Z" fill="white"/>
<path d="M209.955 587.025H197.373V594.328H209.955V587.025Z" fill="white"/>
<path d="M209.955 601.196H197.373V608.5H209.955V601.196Z" fill="white"/>
<path d="M110.955 358.659H97.8445V370.178H110.955V358.659Z" fill="white"/>
<path d="M130.501 358.659H117.391V370.178H130.501V358.659Z" fill="white"/>
<path d="M110.955 375.581H97.8445V387.1H110.955V375.581Z" fill="white"/>
<path d="M130.501 375.581H117.391V387.1H130.501V375.581Z" fill="white"/>
<path d="M110.955 392.503H97.8445V404.022H110.955V392.503Z" fill="white"/>
<path d="M130.501 392.503H117.391V404.022H130.501V392.503Z" fill="white"/>
<path d="M110.955 409.425H97.8445V420.944H110.955V409.425Z" fill="white"/>
<path d="M130.501 409.425H117.391V420.944H130.501V409.425Z" fill="white"/>
<path d="M110.955 426.345H97.8445V437.864H110.955V426.345Z" fill="white"/>
<path d="M130.501 426.345H117.391V437.864H130.501V426.345Z" fill="white"/>
<path d="M110.955 443.267H97.8445V454.786H110.955V443.267Z" fill="white"/>
<path d="M130.501 443.267H117.391V454.786H130.501V443.267Z" fill="white"/>
<path d="M110.955 460.189H97.8445V471.708H110.955V460.189Z" fill="white"/>
<path d="M130.501 460.189H117.391V471.708H130.501V460.189Z" fill="white"/>
<path d="M110.955 477.111H97.8445V488.63H110.955V477.111Z" fill="white"/>
<path d="M130.501 477.111H117.391V488.63H130.501V477.111Z" fill="white"/>
<path d="M154.728 483.249H141.617V494.768H154.728V483.249Z" fill="white"/>
<path d="M154.728 500.171H141.617V511.69H154.728V500.171Z" fill="white"/>
<path d="M154.728 517.093H141.617V528.612H154.728V517.093Z" fill="white"/>
<path d="M154.728 534.015H141.617V545.534H154.728V534.015Z" fill="white"/>
<path d="M154.728 550.935H141.617V562.454H154.728V550.935Z" fill="white"/>
<path d="M154.728 567.857H141.617V579.376H154.728V567.857Z" fill="white"/>
<path d="M110.955 493.83H97.8445V505.349H110.955V493.83Z" fill="white"/>
<path d="M130.501 493.83H117.391V505.349H130.501V493.83Z" fill="white"/>
<path d="M154.728 584.578H141.617V596.097H154.728V584.578Z" fill="white"/>
<path d="M110.955 510.551H97.8445V522.07H110.955V510.551Z" fill="white"/>
<path d="M130.501 510.551H117.391V522.07H130.501V510.551Z" fill="white"/>
<path d="M154.728 601.297H141.617V612.816H154.728V601.297Z" fill="white"/>
<path d="M110.955 527.272H97.8445V538.791H110.955V527.272Z" fill="white"/>
<path d="M130.501 527.272H117.391V538.791H130.501V527.272Z" fill="white"/>
<path d="M154.728 618.018H141.617V629.537H154.728V618.018Z" fill="white"/>
<path d="M110.955 543.991H97.8445V555.51H110.955V543.991Z" fill="white"/>
<path d="M130.501 543.991H117.391V555.51H130.501V543.991Z" fill="white"/>
<path d="M110.955 560.712H97.8445V572.231H110.955V560.712Z" fill="white"/>
<path d="M130.501 560.712H117.391V572.231H130.501V560.712Z" fill="white"/>
<path d="M273.142 465.846H266.063V475.936H273.142V465.846Z" fill="white"/>
<path d="M285.41 465.846H278.331V475.936H285.41V465.846Z" fill="white"/>
<path d="M273.142 481.027H266.063V491.118H273.142V481.027Z" fill="white"/>
<path d="M285.41 481.027H278.331V491.118H285.41V481.027Z" fill="white"/>
<path d="M273.142 496.208H266.063V506.297H273.142V496.208Z" fill="white"/>
<path d="M285.41 496.208H278.331V506.297H285.41V496.208Z" fill="white"/>
<path d="M273.142 511.391H266.063V521.482H273.142V511.391Z" fill="white"/>
<path d="M285.41 511.391H278.331V521.482H285.41V511.391Z" fill="white"/>
<path d="M273.142 526.948H266.063V537.039H273.142V526.948Z" fill="white"/>
<path d="M285.41 526.948H278.331V537.039H285.41V526.948Z" fill="white"/>
<path d="M273.142 542.506H266.063V552.595H273.142V542.506Z" fill="white"/>
<path d="M285.41 542.506H278.331V552.595H285.41V542.506Z" fill="white"/>
<path d="M273.142 558.062H266.063V568.153H273.142V558.062Z" fill="white"/>
<path d="M285.41 558.062H278.331V568.153H285.41V558.062Z" fill="white"/>
<path d="M273.142 573.62H266.063V583.71H273.142V573.62Z" fill="white"/>
<path d="M285.41 573.62H278.331V583.71H285.41V573.62Z" fill="white"/>
<path d="M273.142 589.342H266.063V599.432H273.142V589.342Z" fill="white"/>
<path d="M285.41 589.342H278.331V599.432H285.41V589.342Z" fill="white"/>
<path d="M273.142 605.065H266.063V615.156H273.142V605.065Z" fill="white"/>
<path d="M285.41 605.065H278.331V615.156H285.41V605.065Z" fill="white"/>
<path d="M273.142 620.788H266.063V630.877H273.142V620.788Z" fill="white"/>
<path d="M285.41 620.788H278.331V630.877H285.41V620.788Z" fill="white"/>
<path d="M299.377 465.846H292.3V475.936H299.377V465.846Z" fill="white"/>
<path d="M311.648 465.846H304.569V475.936H311.648V465.846Z" fill="white"/>
<path d="M299.377 450.281H292.3V460.37H299.377V450.281Z" fill="white"/>
<path d="M311.648 450.281H304.569V460.37H311.648V450.281Z" fill="white"/>
<path d="M299.377 434.715H292.3V444.805H299.377V434.715Z" fill="white"/>
<path d="M311.648 434.715H304.569V444.805H311.648V434.715Z" fill="white"/>
<path d="M299.377 481.027H292.3V491.118H299.377V481.027Z" fill="white"/>
<path d="M311.648 481.027H304.569V491.118H311.648V481.027Z" fill="white"/>
<path d="M299.377 496.208H292.3V506.297H299.377V496.208Z" fill="white"/>
<path d="M311.648 496.208H304.569V506.297H311.648V496.208Z" fill="white"/>
<path d="M299.377 511.391H292.3V521.482H299.377V511.391Z" fill="white"/>
<path d="M311.648 511.391H304.569V521.482H311.648V511.391Z" fill="white"/>
<path d="M299.377 526.948H292.3V537.039H299.377V526.948Z" fill="white"/>
<path d="M311.648 526.948H304.569V537.039H311.648V526.948Z" fill="white"/>
<path d="M299.377 542.506H292.3V552.595H299.377V542.506Z" fill="white"/>
<path d="M311.648 542.506H304.569V552.595H311.648V542.506Z" fill="white"/>
<path d="M299.377 558.062H292.3V568.153H299.377V558.062Z" fill="white"/>
<path d="M311.648 558.062H304.569V568.153H311.648V558.062Z" fill="white"/>
<path d="M299.377 573.62H292.3V583.71H299.377V573.62Z" fill="white"/>
<path d="M311.648 573.62H304.569V583.71H311.648V573.62Z" fill="white"/>
<path d="M299.377 589.342H292.3V599.432H299.377V589.342Z" fill="white"/>
<path d="M311.648 589.342H304.569V599.432H311.648V589.342Z" fill="white"/>
<path d="M299.377 605.065H292.3V615.156H299.377V605.065Z" fill="white"/>
<path d="M311.648 605.065H304.569V615.156H311.648V605.065Z" fill="white"/>
<path d="M299.377 620.788H292.3V630.877H299.377V620.788Z" fill="white"/>
<path d="M311.648 620.788H304.569V630.877H311.648V620.788Z" fill="white"/>
<path d="M238 260L110 259.757C110 259.757 116.375 249.568 123.395 248.305C123.395 248.305 137.1 198.316 159.948 198.002C181.189 197.715 189.664 228.818 189.664 228.818C189.664 228.818 199.52 214.891 208.913 221.286C218.306 227.68 223.607 245.944 223.607 245.944C223.607 245.944 234.172 252.98 238 260Z" fill="#EBEBEB"/>
<path d="M362.669 282.144L472.224 282.353C472.224 282.353 472.235 273.636 457.143 271.901C457.143 271.901 443.41 233.784 422.366 238.86C409.261 242.022 402.535 264.405 402.535 264.405C402.535 264.405 392.657 246.762 384.734 250.159C376.81 253.555 372.085 272.306 372.085 272.306C372.085 272.306 363.912 277.22 362.669 282.144Z" fill="#EBEBEB"/>
<path d="M344.621 380.906L419.117 381.048C419.117 381.048 412.097 372.887 408.972 372.883C405.847 372.876 396.762 345.51 385.108 346.652C373.454 347.794 367.247 368.149 367.247 368.149C367.247 368.149 353.09 362.592 344.621 380.906Z" fill="#EBEBEB"/>
<path d="M230.37 177.057L294.075 177.179C294.075 177.179 290.915 172.039 287.423 171.389C287.423 171.389 280.664 146.203 269.292 146.002C258.721 145.814 254.465 161.454 254.465 161.454C254.465 161.454 249.577 154.426 244.895 157.626C240.212 160.826 237.551 170.01 237.551 170.01C237.551 170.01 232.284 173.53 230.37 177.057Z" fill="#EBEBEB"/>
<path d="M0 269.057L63.7054 269.179C63.7054 269.179 60.545 264.039 57.0528 263.389C57.0528 263.389 50.2938 238.203 38.9221 238.002C28.3513 237.814 24.0951 253.454 24.0951 253.454C24.0951 253.454 19.207 246.426 14.5246 249.626C9.84227 252.826 7.18149 262.01 7.18149 262.01C7.18149 262.01 1.91384 265.53 0 269.057Z" fill="#EBEBEB"/>
<path d="M8.27002 369.015L71.9754 369.137C71.9754 369.137 68.815 363.996 65.3229 363.348C65.3229 363.348 58.5626 338.162 47.1922 337.961C36.6213 337.775 32.3651 353.413 32.3651 353.413C32.3651 353.413 27.477 346.385 22.7934 349.585C18.1111 352.785 15.4503 361.967 15.4503 361.967C15.4503 361.967 10.1839 365.487 8.27002 369.015Z" fill="#EBEBEB"/>
</g>
<path d="M356.641 752.957H81.5836C74.68 752.957 69.0842 747.494 69.0842 740.754V327.105C69.0842 320.365 74.68 314.902 81.5836 314.902H356.639C363.543 314.902 369.139 320.365 369.139 327.105V740.756C369.14 747.494 363.543 752.957 356.641 752.957Z" fill="#263238"/>
<path d="M186.343 333.747V332.18C186.343 331.354 187.028 330.686 187.873 330.686H250.153C251 330.686 251.684 331.355 251.684 332.18V333.747C251.684 334.573 250.998 335.241 250.153 335.241H187.873C187.027 335.243 186.343 334.573 186.343 333.747Z" fill="#455A64"/>
<path d="M219.013 746.448C214.345 746.448 210.563 742.754 210.563 738.198C210.563 733.642 214.346 729.948 219.013 729.948C223.68 729.948 227.464 733.642 227.464 738.198C227.464 742.755 223.68 746.448 219.013 746.448Z" fill="#455A64"/>
<path d="M356.47 345.833H81.9067V722.882H356.47V345.833Z" fill="#EBEBEB"/>
<path d="M315.063 345.838H208.516V352.401H315.063V345.838Z" fill="#C7C7C7"/>
<path d="M195.137 401.543V465.901H120.298V483.497H81.9106V487.968H120.298V554.478L134.085 585.235H86.4534V722.881H95.6124V692.364H133.816V687.905H95.6124V594.176H138.077L148.865 618.239C137.33 623.152 129.236 634.4 129.236 647.454C129.236 664.153 142.461 677.876 159.224 679.179H159.248L181.644 714.908L173.476 722.881H186.431L186.566 722.75L186.652 722.881H197.39L169.497 678.426C183.811 675.055 194.5 662.455 194.5 647.454C194.5 643.473 193.754 639.66 192.37 636.145L256.324 606.452H319.592V681.952L277.679 722.881H284.156L319.592 688.275V722.881H328.751V606.452H356.473V597.511H284.707L231.063 540.588H356.473V536.117H226.851L169.117 474.842H262.483L294.025 442.185L356.473 503.149V490.514L300.319 435.694L329.62 405.356V345.838H320.461V401.805L258.528 465.901H234.712V421.637H244.177V417.166H230.132V465.901H204.296V345.838H195.137V392.601H81.9106V401.543H195.137ZM161.868 624.538C174.811 624.538 185.341 634.819 185.341 647.454C185.341 660.089 174.811 670.369 161.868 670.369C148.926 670.369 138.395 660.089 138.395 647.454C138.395 634.819 148.926 624.538 161.868 624.538ZM129.457 552.589V474.842H156.664L272.254 597.511H254.255L187.937 628.304C181.962 620.594 172.509 615.597 161.868 615.597C160.497 615.597 159.126 615.693 157.791 615.848L129.457 552.589Z" fill="#A6A6A6"/>
<path d="M150.62 481.621H137.305V494.62H150.62V481.621Z" fill="#C7C7C7"/>
<path d="M275.669 531.469V506.365H266.315V495.878H249.848V531.469H275.669Z" fill="#C7C7C7"/>
<path d="M208.516 356.5V371.114H216.049V386.489H229.999V356.5H208.516Z" fill="#C7C7C7"/>
<path d="M315.063 356.5H298.678V378.401H315.063V356.5Z" fill="#C7C7C7"/>
<path d="M238.323 462.108V443.447H274.15L254.798 462.339L238.323 462.108Z" fill="#C7C7C7"/>
<path d="M226.515 444.768H208.516V462.339H226.515V444.768Z" fill="#C7C7C7"/>
<path d="M96.3707 449.586H81.9819V478.803H96.3707V449.586Z" fill="#C7C7C7"/>
<path d="M116.507 465.358H100.252V478.804H116.507V465.358Z" fill="#C7C7C7"/>
<path d="M190.837 405.051H169.157V424.517H190.837V405.051Z" fill="#C7C7C7"/>
<path d="M190.838 428.337V462.339H164.322L147.415 445.833V428.337H190.838Z" fill="#C7C7C7"/>
<path d="M142.628 449.586L155.946 462.589H120.4V449.586H142.628Z" fill="#C7C7C7"/>
<path d="M134.253 598.214H100.252V613.873H140.723L134.253 598.214Z" fill="#C7C7C7"/>
<path d="M114.842 621.552H100.252V643.104H114.842V621.552Z" fill="#C7C7C7"/>
<path d="M134.507 681.746V674.221C128.06 667.113 123.725 658.183 122.43 648.3H100.246V681.746H134.507Z" fill="#C7C7C7"/>
<path d="M214.123 609.252L200.19 579.872H183.22L154.239 592.998L161.809 609.147H161.87C172.583 609.147 182.32 613.333 189.401 620.128L214.123 609.252Z" fill="#C7C7C7"/>
<path d="M270.139 572.657L288.529 592.173H324.663V572.657H270.139Z" fill="#C7C7C7"/>
<path d="M352.303 572.657H329.449V592.173H352.303V572.657Z" fill="#C7C7C7"/>
<path d="M130.645 711.848V722.881H164.122L173.428 713.283L154.424 682.98L144.2 691.359V711.848H130.645Z" fill="#C7C7C7"/>
<path d="M237.969 678.844L210.475 650.863L199.93 658.908C196.802 668.845 189.69 677.083 180.427 681.836L203.425 718.516L237.969 678.844Z" fill="#C7C7C7"/>
<path d="M208.022 638.512L256.319 615.204H280.409V656.204L242.855 674.31L208.022 638.512Z" fill="#C7C7C7"/>
<path d="M314.478 701.068V721.326H293.73L314.478 701.068Z" fill="#C7C7C7"/>
<path d="M137.305 500.047V551.574L152.036 586.747L178.912 573.747H241.586L171.3 500.047H137.305Z" fill="#A5F708"/>
<path d="M290.178 426.346H238.323V439.032H277.921L290.178 426.346Z" fill="#C7C7C7"/>
<path d="M116.507 493.154H81.9819V530.287H116.507V493.154Z" fill="#C7C7C7"/>
<path d="M116.507 536.256H100.252V552.125H116.507V536.256Z" fill="#C7C7C7"/>
<path d="M116.507 556.945H91.1804V581.01H127.149L116.507 556.945Z" fill="#C7C7C7"/>
<path d="M96.3707 536.256H81.9819V541.049H96.3707V536.256Z" fill="#C7C7C7"/>
<path d="M96.3707 544.189H81.9819V552.124H96.3707V544.189Z" fill="#C7C7C7"/>
<path d="M313.566 615.204H287.085V642.022H313.566V615.204Z" fill="#C7C7C7"/>
<path d="M313.566 646.2H287.085V655.613H313.566V646.2Z" fill="#C7C7C7"/>
<path d="M209.807 722.881H270.601L281.303 712.434L243.271 682.98L209.807 722.881Z" fill="#C7C7C7"/>
<path d="M284.639 708.004L300.326 693.307L281.301 677.136V662.589L247.762 679.27L284.639 708.004Z" fill="#A5F708"/>
<path d="M313.566 679.599L304.104 688.272L287.085 674.31V659.764H313.566V679.599Z" fill="#C7C7C7"/>
<path d="M123.849 697.48H100.253V722.881H123.849V697.48Z" fill="#C7C7C7"/>
<path d="M138.726 699.587H130.645V707.477H138.726V699.587Z" fill="#C7C7C7"/>
<path d="M356.473 615.322H335.596V648.422H356.473V615.322Z" fill="#C7C7C7"/>
<path d="M335.596 655.725V678.677L356.473 691.12V655.725H335.596Z" fill="#C7C7C7"/>
<path d="M335.474 686.458V709.577H356.473V697.994L335.474 686.458Z" fill="#C7C7C7"/>
<path d="M344.523 713.282H335.474V722.881H344.523V713.282Z" fill="#C7C7C7"/>
<path d="M356.473 713.282H349.09V722.881H356.473V713.282Z" fill="#C7C7C7"/>
<path d="M356.474 345.838H336.49V384.377H356.474V345.838Z" fill="#C7C7C7"/>
<path d="M138.176 357.493V387.234H189.444V345.838H151.167L138.176 357.493Z" fill="#C7C7C7"/>
<path d="M133.827 371.271H103.632V387.233H133.827V371.271Z" fill="#C7C7C7"/>
<path d="M133.827 358.234H103.632V367.152H133.827V358.234Z" fill="#C7C7C7"/>
<path d="M93.5276 358.726H99.7871V387.233H85.8318V366.659L93.5276 358.726Z" fill="#C7C7C7"/>
<path d="M85.8293 345.838V354.648H136.645L146.269 345.838H85.8293Z" fill="#C7C7C7"/>
<path d="M244.545 545.999L266.315 568.321H287.085V545.999H244.545Z" fill="#C7C7C7"/>
<path d="M316.103 558.056H291.405V568.321H316.103V558.056Z" fill="#C7C7C7"/>
<path d="M302.53 545.999H291.405V555.322H302.53V545.999Z" fill="#C7C7C7"/>
<path d="M316.103 545.999H305.292V555.322H316.103V545.999Z" fill="#C7C7C7"/>
<path d="M334.71 545.999H319.105V568.321H334.71V545.999Z" fill="#C7C7C7"/>
<path d="M352.092 568.321H338.58V553.059L345.05 545.999H352.092V568.321Z" fill="#C7C7C7"/>
<path d="M206.697 579.873H241.587V596.162L219.281 606.044L206.697 579.873Z" fill="#C7C7C7"/>
<path d="M163.185 662.805C171.804 662.1 178.205 654.708 177.482 646.294C176.76 637.881 169.188 631.632 160.57 632.337C151.952 633.042 145.551 640.434 146.273 648.847C146.995 657.261 154.567 663.51 163.185 662.805Z" fill="#A5F708"/>
<path d="M107.556 405.051H81.9819V446.75H96.3707L107.556 432.492V405.051Z" fill="#C7C7C7"/>
<path d="M116.507 437.439H107.556L100.252 446.75V461.447H116.507V437.439Z" fill="#C7C7C7"/>
<path d="M126.26 405.051H112.032V416.799H126.26V405.051Z" fill="#C7C7C7"/>
<path d="M142.244 445.343V405.058H129.456V437.447H120.406V445.343H142.244Z" fill="#C7C7C7"/>
<path d="M165.515 405.051H147.415V423.433H165.515V405.051Z" fill="#C7C7C7"/>
<path d="M126.26 419.048H112.016V433.902H126.26V419.048Z" fill="#C7C7C7"/>
<path d="M310.854 467.956V531.471H354.558V509.887L310.854 467.956Z" fill="#C7C7C7"/>
<path d="M306.46 506.365H279.563V531.471H306.46V506.365Z" fill="#C7C7C7"/>
<path d="M181.366 479.326L209.421 509.129H244.634V479.326H181.366Z" fill="#C7C7C7"/>
<path d="M213.42 512.574L231.224 531.471H244.545V512.574H213.42Z" fill="#C7C7C7"/>
<path d="M266.313 479.326H249.848V491.776H266.313V479.326Z" fill="#C7C7C7"/>
<path d="M306.466 491.255V463.265L293.449 449.589L270.77 473.336V500.496H297.661V491.255H306.466Z" fill="#A5F708"/>
<path d="M329.656 411.738L306.603 436.3L332.765 461.249L347.213 446.035L329.656 411.738Z" fill="#C7C7C7"/>
<path d="M335.731 464.431L356.473 484.561V449.752H349.665L335.731 464.431Z" fill="#C7C7C7"/>
<path d="M333.062 407.579L344.474 431.427H356.473V388.142H336.49V403.993L333.062 407.579Z" fill="#C7C7C7"/>
<path d="M356.473 434.343H349.935V446.357H356.473V434.343Z" fill="#C7C7C7"/>
<path d="M315.063 382.488H274.15V422.308H294.697L315.063 400.469V382.488Z" fill="#C7C7C7"/>
<path d="M269.373 397.068H249.371V422.308H269.373V397.068Z" fill="#A5F708"/>
<path d="M294.7 378.405V356.5H249.375V393.899H269.367V378.405H294.7Z" fill="#C7C7C7"/>
<path d="M246.788 356.5H232.426V377.872H246.788V356.5Z" fill="#C7C7C7"/>
<path d="M246.789 389.215H208.516V407.585H246.789V389.215Z" fill="#C7C7C7"/>
<path d="M246.788 380.528H232.426V386.489H246.788V380.528Z" fill="#C7C7C7"/>
<path d="M226.513 441.26H216.049L208.516 434.28V413.968H226.513V441.26Z" fill="#C7C7C7"/>
<path d="M259.8 395.256C253.623 388.336 247.841 380.75 248.688 372.374C249.24 366.946 253.07 361.544 259.8 361.544C266.53 361.544 270.36 366.946 270.912 372.374C271.769 380.752 265.977 388.336 259.8 395.256Z" fill="white"/>
<path d="M259.8 395.256C257.362 392.588 254.984 389.85 252.956 386.852C250.94 383.862 249.306 380.552 248.63 376.98C248.302 375.196 248.283 373.362 248.535 371.559C248.805 369.757 249.463 368.014 250.421 366.444C251.415 364.902 252.746 363.525 254.393 362.619C256.033 361.709 257.923 361.25 259.801 361.246C261.68 361.25 263.569 361.709 265.21 362.619C266.857 363.525 268.188 364.903 269.181 366.445C270.137 368.015 270.796 369.758 271.065 371.56C271.317 373.363 271.301 375.197 270.973 376.981C270.299 380.553 268.663 383.863 266.646 386.853C264.618 389.852 262.238 392.588 259.8 395.256ZM259.8 395.256C262.162 392.525 264.463 389.726 266.394 386.696C268.347 383.695 269.907 380.401 270.509 376.907C270.798 375.162 270.787 373.38 270.542 371.642C270.274 369.905 269.629 368.23 268.706 366.732C267.747 365.262 266.476 363.963 264.918 363.116C263.366 362.266 261.586 361.842 259.8 361.843C258.013 361.841 256.234 362.265 254.682 363.115C253.123 363.961 251.853 365.261 250.893 366.731C249.97 368.228 249.326 369.902 249.056 371.639C248.812 373.377 248.802 375.16 249.092 376.905C249.694 380.4 251.254 383.692 253.206 386.695C255.138 389.726 257.438 392.525 259.8 395.256Z" fill="#263238"/>
<path d="M263.991 378.066H254.406L252.055 369.754L265.535 369.742L266.023 367.825H267.548V368.368H266.457L263.991 378.066ZM254.83 377.523H263.557L265.397 370.285L252.786 370.297L254.83 377.523Z" fill="#F708A5"/>
<path d="M255.754 379.712L255.241 379.5L256.099 377.511H262.623L263.329 379.518L262.804 379.694L262.226 378.055H256.468L255.754 379.712Z" fill="#F708A5"/>
<path d="M265.269 371.643H253.026V372.186H265.269V371.643Z" fill="#F708A5"/>
<path d="M264.607 373.67L253.533 373.721L253.536 374.264L264.61 374.212L264.607 373.67Z" fill="#F708A5"/>
<path d="M264.153 375.766H254.12V376.308H264.153V375.766Z" fill="#F708A5"/>
<path d="M259.546 370.06H258.99V377.793H259.546V370.06Z" fill="#F708A5"/>
<path d="M257.382 370.046L256.826 370.089L257.461 377.822L258.016 377.779L257.382 370.046Z" fill="#F708A5"/>
<path d="M254.992 369.997L254.445 370.095L255.902 377.829L256.449 377.73L254.992 369.997Z" fill="#F708A5"/>
<path d="M261.128 370.039L260.492 377.772L261.047 377.815L261.684 370.082L261.128 370.039Z" fill="#F708A5"/>
<path d="M263.511 370.028L262.056 377.761L262.602 377.86L264.058 370.126L263.511 370.028Z" fill="#F708A5"/>
<path d="M255.498 380.775C254.836 380.775 254.299 380.251 254.299 379.605C254.299 378.96 254.836 378.435 255.498 378.435C256.159 378.435 256.696 378.96 256.696 379.605C256.696 380.251 256.159 380.775 255.498 380.775ZM255.498 378.979C255.144 378.979 254.855 379.26 254.855 379.605C254.855 379.951 255.142 380.233 255.498 380.233C255.851 380.233 256.139 379.952 256.139 379.605C256.14 379.261 255.851 378.979 255.498 378.979Z" fill="#F708A5"/>
<path d="M263.04 380.775C262.379 380.775 261.841 380.251 261.841 379.605C261.841 378.96 262.379 378.435 263.04 378.435C263.701 378.435 264.239 378.96 264.239 379.605C264.239 380.251 263.7 380.775 263.04 380.775ZM263.04 378.979C262.686 378.979 262.398 379.26 262.398 379.605C262.398 379.951 262.686 380.233 263.04 380.233C263.394 380.233 263.681 379.952 263.681 379.605C263.681 379.261 263.394 378.979 263.04 378.979Z" fill="#F708A5"/>
<path d="M297.4 463.171C291.222 456.251 285.44 448.665 286.288 440.289C286.84 434.861 290.67 429.459 297.4 429.459C304.129 429.459 307.96 434.861 308.512 440.289C309.368 448.665 303.577 456.25 297.4 463.171Z" fill="white"/>
<path d="M297.4 463.171C294.962 460.503 292.584 457.764 290.556 454.766C288.539 451.777 286.906 448.467 286.23 444.895C285.902 443.11 285.882 441.277 286.134 439.474C286.405 437.671 287.063 435.928 288.02 434.359C289.014 432.817 290.345 431.44 291.992 430.534C293.633 429.624 295.522 429.166 297.401 429.16C299.279 429.165 301.167 429.624 302.809 430.535C304.456 431.441 305.787 432.819 306.78 434.361C307.738 435.931 308.395 437.674 308.665 439.476C308.917 441.279 308.901 443.113 308.573 444.897C307.898 448.469 306.262 451.779 304.246 454.769C302.217 457.765 299.837 460.502 297.4 463.171ZM297.4 463.171C299.762 460.439 302.062 457.641 303.993 454.611C305.946 451.609 307.506 448.316 308.109 444.822C308.398 443.077 308.387 441.294 308.142 439.556C307.874 437.82 307.228 436.145 306.305 434.648C305.346 433.178 304.075 431.879 302.518 431.032C300.965 430.182 299.186 429.758 297.4 429.759C295.613 429.757 293.834 430.181 292.281 431.031C290.723 431.877 289.453 433.177 288.493 434.647C287.57 436.144 286.925 437.818 286.656 439.555C286.411 441.293 286.401 443.076 286.692 444.821C287.294 448.316 288.854 451.608 290.806 454.611C292.737 457.64 295.038 460.439 297.4 463.171Z" fill="#263238"/>
<path d="M302.441 436.494V448.196H300.128V443.202H294.691V448.196H292.361V436.494H294.691V441.224H300.128V436.494H302.441Z" fill="#F708A5"/>
<path d="M171.798 527.885C165.62 520.965 159.838 513.379 160.685 505.003C161.238 499.575 165.068 494.173 171.798 494.173C178.527 494.173 182.357 499.575 182.91 505.003C183.765 513.379 177.975 520.965 171.798 527.885Z" fill="white"/>
<path d="M171.797 527.885C169.36 525.216 166.982 522.478 164.954 519.481C162.937 516.491 161.304 513.182 160.628 509.61C160.3 507.825 160.28 505.991 160.532 504.189C160.803 502.386 161.461 500.643 162.418 499.074C163.412 497.532 164.743 496.155 166.39 495.249C168.031 494.339 169.92 493.88 171.799 493.875C173.677 493.88 175.565 494.339 177.207 495.249C178.854 496.155 180.185 497.533 181.179 499.075C182.136 500.644 182.794 502.387 183.064 504.19C183.316 505.993 183.3 507.826 182.972 509.611C182.297 513.183 180.661 516.493 178.645 519.482C176.615 522.479 174.235 525.216 171.797 527.885ZM171.797 527.885C174.159 525.153 176.46 522.355 178.391 519.325C180.344 516.322 181.904 513.03 182.507 509.536C182.796 507.79 182.785 506.008 182.54 504.27C182.272 502.533 181.626 500.858 180.704 499.362C179.746 497.892 178.475 496.592 176.917 495.746C175.364 494.896 173.585 494.472 171.799 494.473C170.012 494.47 168.233 494.895 166.68 495.745C165.122 496.591 163.852 497.89 162.892 499.361C161.969 500.857 161.325 502.532 161.055 504.269C160.81 506.007 160.801 507.789 161.091 509.534C161.693 513.03 163.253 516.322 165.205 519.325C167.135 522.355 169.434 525.153 171.797 527.885Z" fill="#263238"/>
<path d="M173.273 503.164L175.623 504.837C175.623 504.837 175.88 503.631 176.421 503.763C176.964 503.895 177.267 504.742 177.271 506.009L178.772 507.078C178.849 507.133 178.898 507.217 178.908 507.308L179.021 508.412C179.046 508.654 178.802 508.834 178.57 508.748L173.189 506.75C173.071 509.09 172.868 511.203 172.789 511.975C172.77 512.167 172.862 512.354 173.026 512.461L174.527 513.443C174.67 513.538 174.758 513.693 174.765 513.862C174.767 513.955 174.745 514.043 174.705 514.12C174.615 514.287 174.434 514.402 174.226 514.402L169.393 514.377C169.107 514.376 168.872 514.155 168.86 513.875L168.859 513.864C168.852 513.675 168.948 513.497 169.112 513.398L170.634 512.481C170.812 512.373 170.909 512.176 170.885 511.974C170.789 511.183 170.546 509.073 170.431 506.741C170.414 506.746 170.396 506.749 170.38 506.755L165.025 508.726C164.796 508.811 164.555 508.634 164.576 508.395L164.672 507.242C164.682 507.144 164.735 507.055 164.816 507.002L166.411 505.93C166.411 505.93 166.328 504.243 166.989 503.835C167.65 503.429 168.063 504.822 168.063 504.822L170.388 503.261C170.468 500.86 170.769 498.612 171.81 498.377C173.044 498.097 173.242 500.255 173.273 503.164Z" fill="#F708A5"/>
<path d="M281.302 687.225C275.124 680.305 269.342 672.719 270.19 664.343C270.742 658.915 274.572 653.513 281.302 653.513C288.031 653.513 291.862 658.915 292.414 664.343C293.27 672.719 287.479 680.305 281.302 687.225Z" fill="white"/>
<path d="M281.301 687.225C278.863 684.557 276.486 681.818 274.458 678.82C272.441 675.83 270.808 672.52 270.132 668.949C269.804 667.164 269.784 665.33 270.036 663.528C270.307 661.725 270.964 659.982 271.922 658.413C272.916 656.871 274.247 655.494 275.894 654.588C277.535 653.678 279.424 653.22 281.303 653.214C283.181 653.219 285.069 653.678 286.711 654.589C288.358 655.495 289.689 656.873 290.682 658.415C291.64 659.985 292.297 661.727 292.567 663.53C292.819 665.333 292.803 667.166 292.475 668.951C291.8 672.523 290.164 675.833 288.147 678.822C286.12 681.819 283.739 684.557 281.301 687.225ZM281.301 687.225C283.665 684.493 285.964 681.695 287.895 678.665C289.848 675.663 291.408 672.37 292.011 668.876C292.3 667.131 292.289 665.348 292.044 663.61C291.776 661.873 291.13 660.199 290.208 658.701C289.249 657.231 287.978 655.931 286.421 655.085C284.868 654.235 283.089 653.811 281.303 653.812C279.516 653.809 277.737 654.234 276.184 655.084C274.626 655.93 273.356 657.229 272.396 658.7C271.473 660.196 270.829 661.871 270.559 663.608C270.314 665.346 270.304 667.128 270.595 668.873C271.197 672.369 272.757 675.661 274.709 678.663C276.64 681.694 278.939 684.493 281.301 687.225Z" fill="#263238"/>
<path d="M276.852 661.886H285.754L286.841 671.509H275.765L276.852 661.886Z" fill="#F708A5"/>
<path d="M278.525 662.296C278.513 662.198 278.225 659.873 279.353 658.624C279.82 658.107 280.446 657.845 281.21 657.845C281.972 657.845 282.607 658.105 283.096 658.618C284.277 659.858 284.119 662.172 284.113 662.269L283.028 662.194C283.068 661.653 283.011 660.086 282.297 659.34C281.745 658.763 280.683 658.757 280.17 659.326C279.503 660.062 279.535 661.625 279.605 662.165L278.525 662.296Z" fill="#F708A5"/>
<path d="M165.514 642.759C159.336 635.839 153.554 628.254 154.402 619.878C154.954 614.449 158.784 609.048 165.514 609.048C172.243 609.048 176.073 614.449 176.626 619.878C177.482 628.254 171.691 635.838 165.514 642.759Z" fill="white"/>
<path d="M165.514 642.76C163.076 640.091 160.698 637.353 158.67 634.355C156.653 631.365 155.02 628.055 154.344 624.484C154.016 622.699 153.996 620.865 154.248 619.063C154.519 617.26 155.177 615.517 156.134 613.948C157.128 612.406 158.459 611.028 160.106 610.122C161.747 609.213 163.636 608.754 165.514 608.749C167.392 608.754 169.28 609.213 170.922 610.122C172.569 611.028 173.9 612.407 174.893 613.949C175.851 615.518 176.508 617.261 176.777 619.064C177.03 620.866 177.014 622.7 176.686 624.485C176.011 628.056 174.375 631.366 172.358 634.356C170.331 637.354 167.951 640.09 165.514 642.76ZM165.514 642.76C167.877 640.028 170.176 637.23 172.107 634.199C174.06 631.198 175.62 627.905 176.223 624.411C176.512 622.665 176.501 620.883 176.256 619.145C175.988 617.408 175.342 615.733 174.42 614.236C173.462 612.765 172.191 611.466 170.633 610.62C169.08 609.77 167.301 609.345 165.515 609.347C163.728 609.344 161.949 609.769 160.397 610.618C158.838 611.465 157.568 612.764 156.608 614.234C155.685 615.731 155.041 617.406 154.771 619.143C154.526 620.881 154.517 622.663 154.807 624.408C155.409 627.903 156.969 631.195 158.921 634.198C160.851 637.229 163.15 640.027 165.514 642.76Z" fill="#263238"/>
<path d="M171.799 619.794C171.799 622.017 170.686 624.659 167.847 625.589C167.823 625.597 167.8 625.608 167.771 625.617C167.111 625.823 166.362 625.941 165.513 625.941C164.665 625.941 163.917 625.823 163.256 625.617C163.227 625.608 163.204 625.597 163.18 625.589C160.341 624.659 159.228 622.017 159.228 619.794C159.228 616.632 162.106 613.627 165.512 613.627C168.924 613.627 171.799 616.632 171.799 619.794Z" fill="#F708A5"/>
<path d="M167.771 625.615C167.127 625.85 166.378 625.987 165.514 625.987C164.649 625.987 163.9 625.851 163.256 625.615C163.916 625.822 164.665 625.939 165.514 625.939C166.362 625.941 167.111 625.823 167.771 625.615Z" fill="#FFC727"/>
<path d="M165.265 617.715C165.265 621.777 165.265 625.84 165.265 629.903C165.265 630.476 165.265 631.048 165.265 631.621C165.265 631.935 165.766 631.935 165.766 631.621C165.766 627.559 165.766 623.496 165.766 619.433C165.766 618.861 165.766 618.288 165.766 617.715C165.764 617.401 165.265 617.4 165.265 617.715Z" fill="#263238"/>
<path d="M163.469 622.48C164.001 623.43 164.533 624.382 165.065 625.332C165.143 625.47 165.22 625.607 165.296 625.744C165.45 626.021 165.882 625.774 165.728 625.498C165.195 624.548 164.663 623.596 164.131 622.646C164.054 622.509 163.977 622.371 163.901 622.234C163.747 621.958 163.315 622.204 163.469 622.48Z" fill="#263238"/>
<path d="M164.081 619.067C164.411 619.657 164.741 620.247 165.071 620.836C165.119 620.921 165.167 621.007 165.215 621.092C165.369 621.368 165.801 621.122 165.647 620.846C165.316 620.257 164.987 619.666 164.656 619.077C164.609 618.992 164.561 618.906 164.513 618.821C164.359 618.545 163.927 618.79 164.081 619.067Z" fill="#263238"/>
<path d="M167.126 619.882C166.593 620.833 166.062 621.784 165.529 622.735C165.452 622.872 165.375 623.01 165.299 623.147C165.145 623.423 165.577 623.669 165.731 623.393C166.264 622.443 166.795 621.491 167.328 620.541C167.405 620.404 167.482 620.266 167.558 620.129C167.713 619.854 167.28 619.606 167.126 619.882Z" fill="#263238"/>
<path d="M98.605 700.612C98.605 700.612 95.4042 743.948 95.403 743.98C95.3589 752.467 95.4753 759.909 95.9038 763.753C95.9026 763.774 95.9026 763.794 95.9124 763.815C96.0728 765.267 96.2761 766.192 96.5405 766.44C96.5614 766.462 96.5712 766.482 96.5907 766.494C99.1695 768.218 168.637 770.539 171.087 769.825C173.547 769.12 171.643 762.235 169.02 760.045C166.377 757.854 140.198 745.354 140.198 745.354L142.967 702.036L98.605 700.612Z" fill="#EB9481"/>
<path d="M95.4018 734.867C95.4018 734.867 95.4042 743.947 95.403 743.978C95.3589 752.465 95.4753 759.908 95.9038 763.752C95.9026 763.772 95.9026 763.792 95.9124 763.814C96.1573 765.247 96.3814 766.195 96.5405 766.439C96.5614 766.461 96.5712 766.481 96.5907 766.493C99.1695 768.217 168.637 770.538 171.087 769.823C173.547 769.119 171.643 762.234 169.02 760.044C166.377 757.853 140.198 745.353 140.198 745.353L140.326 736.105L95.4018 734.867Z" fill="white"/>
<path d="M171.088 769.825C168.634 770.542 99.1721 768.222 96.5872 766.492C95.5929 765.851 95.3493 755.951 95.4068 743.98C95.408 743.854 95.4105 743.73 95.4117 743.604L140.242 744.613L140.199 745.355C140.199 745.355 166.379 757.853 169.019 760.048C171.636 762.233 173.543 769.118 171.088 769.825Z" fill="#C4D9ED"/>
<path d="M170.393 767.17C158.693 766.498 111.442 764.865 99.8246 765.069C99.7304 765.071 99.7279 765.134 99.8222 765.141C111.403 766.054 158.668 767.313 170.387 767.357C170.634 767.357 170.641 767.184 170.393 767.17Z" fill="#263238"/>
<path d="M143.959 745.612C139.381 744.619 133.721 745.121 130.088 748.209C129.948 748.328 130.124 748.522 130.275 748.481C134.87 747.235 139.146 746.478 143.921 746.18C144.258 746.16 144.287 745.684 143.959 745.612Z" fill="#263238"/>
<path d="M147.216 747.68C142.638 746.687 136.978 747.189 133.345 750.277C133.205 750.396 133.381 750.59 133.532 750.549C138.127 749.303 142.403 748.546 147.178 748.248C147.515 748.228 147.544 747.752 147.216 747.68Z" fill="#263238"/>
<path d="M150.475 749.748C145.896 748.755 140.237 749.257 136.604 752.345C136.463 752.464 136.639 752.658 136.79 752.617C141.385 751.371 145.661 750.614 150.437 750.317C150.772 750.295 150.802 749.82 150.475 749.748Z" fill="#263238"/>
<path d="M92.7284 745.849L141.353 744.901C141.353 744.901 147.283 659.482 146.178 631.004C144.978 600.07 131.366 508.029 131.366 508.029H90.3003C90.3003 508.029 100.798 600.43 101.021 631.377C101.226 660.064 92.7284 745.849 92.7284 745.849Z" fill="#37474F"/>
<path d="M123.298 508.031L98.6303 591.348C95.71 551.919 90.3003 508.031 90.3003 508.031H123.298Z" fill="#263238"/>
<path d="M98.0957 512.566L100.704 540.04L103.118 567.531C104.665 585.865 106.133 604.203 107.251 622.577C107.525 627.168 107.691 631.782 107.625 636.399C107.523 641.006 107.334 645.605 107.096 650.2C106.611 659.392 106.003 668.572 105.28 677.744C104.567 686.916 103.809 696.085 103 705.248L100.376 732.723L102.477 705.208C103.178 696.037 103.846 686.864 104.458 677.688C105.052 668.511 105.689 659.337 106.122 650.155C106.345 645.565 106.516 640.973 106.602 636.384C106.654 631.803 106.469 627.222 106.183 622.633C105.156 604.278 103.672 585.937 102.302 567.595L98.0957 512.566Z" fill="#263238"/>
<path d="M139.321 736.983C131.729 736.918 133.909 736.832 126.317 736.851C122.602 736.86 98.1872 736.942 94.7244 737.543C94.6485 737.557 94.6497 737.683 94.7269 737.694C98.2056 738.214 122.613 737.718 126.328 737.639C133.918 737.478 131.736 737.443 139.324 737.199C139.466 737.194 139.464 736.984 139.321 736.983Z" fill="#263238"/>
<path d="M19.562 677.365C19.562 677.365 -3.89391 714.583 -3.90983 714.61C-7.71915 722.239 -10.9199 728.994 -12.2423 732.64C-12.2521 732.658 -12.2619 732.676 -12.2631 732.7C-12.764 734.075 -12.9917 734.996 -12.8631 735.331C-12.8546 735.358 -12.8546 735.382 -12.8411 735.4C-11.2836 738.046 50.2814 769.545 52.8063 769.938C55.336 770.344 56.6781 763.334 55.2883 760.251C53.8789 757.158 35.8425 734.811 35.8425 734.811L58.9017 697.427L19.562 677.365Z" fill="#EB9481"/>
<path d="M-12.8556 735.336C-12.8556 735.357 -12.8556 735.38 -12.8446 735.401C-11.2822 738.047 50.2816 769.545 52.8114 769.94C55.3411 770.347 56.6782 763.334 55.2958 760.25C53.8791 757.155 35.8464 734.809 35.8464 734.809L39.9606 728.136C29.8991 722.9 11.6068 713.703 0.252309 708.007C-2.22112 711.926 -3.90721 714.603 -3.90721 714.614C-7.71898 722.242 -10.9222 728.991 -12.2385 732.635C-12.2495 732.657 -12.2605 732.68 -12.2605 732.701C-12.7662 734.073 -12.9915 734.995 -12.8556 735.336Z" fill="white"/>
<path d="M52.8089 769.939C50.2791 769.547 -11.281 738.05 -12.8422 735.398C-13.4532 734.4 -9.2753 725.376 -3.90601 714.613C-3.84846 714.5 -3.79214 714.389 -3.73459 714.277L36.2137 734.164L35.8451 734.814C35.8451 734.814 53.8852 757.159 55.2884 760.253C56.6758 763.331 55.335 770.342 52.8089 769.939Z" fill="#E6F6FE"/>
<path d="M53.3636 767.253C43.1197 761.695 1.2674 740.221 -9.29118 735.486C-9.37689 735.448 -9.40751 735.503 -9.32547 735.55C0.704149 741.275 42.734 762.417 53.2755 767.418C53.4971 767.524 53.5791 767.37 53.3636 767.253Z" fill="#263238"/>
<path d="M39.1191 736.639C35.4347 733.806 30.1119 731.862 25.4675 733.107C25.2875 733.154 25.3598 733.403 25.514 733.43C30.2086 734.252 34.3976 735.381 38.8326 737.135C39.1448 737.258 39.3836 736.842 39.1191 736.639Z" fill="#263238"/>
<path d="M41.1357 739.881C37.4513 737.048 32.1285 735.104 27.4841 736.347C27.3041 736.395 27.3764 736.645 27.5306 736.671C32.2252 737.493 36.4142 738.622 40.8492 740.375C41.1614 740.5 41.4002 740.084 41.1357 739.881Z" fill="#263238"/>
<path d="M43.1525 743.124C39.4681 740.291 34.1454 738.347 29.501 739.59C29.321 739.638 29.3932 739.888 29.5475 739.914C34.2421 740.735 38.431 741.865 42.866 743.619C43.1783 743.742 43.4158 743.326 43.1525 743.124Z" fill="#263238"/>
<path d="M127.166 507.991C127.166 507.991 127.166 508.002 127.155 508.032C126.976 508.857 124.103 521.862 121.127 533.034C118.963 541.196 116.736 548.369 115.457 549.112C114.011 549.946 106.959 552.997 104.594 553.955C104.594 553.955 88.7345 631.245 80.3616 655.211C72.6352 677.328 40.6643 736.441 40.6643 736.441L-5.72095 713.562C-5.72095 713.562 30.5025 653.569 34.3118 642.802C40.215 626.115 62.3386 544.636 62.3386 544.636C62.3386 544.636 62.1697 519.127 70.9699 507.99H127.166V507.991Z" fill="#37474F"/>
<path d="M39.9819 727.614C33.3539 723.999 35.3081 724.944 28.6397 721.403C25.3765 719.669 3.92011 708.298 0.58588 707.202C0.512412 707.178 0.451191 707.289 0.513638 707.335C3.3091 709.421 24.9638 720.427 28.2613 722.098C34.9995 725.515 33.1028 724.463 39.8791 727.804C40.0052 727.867 40.1068 727.681 39.9819 727.614Z" fill="#263238"/>
<path d="M74.2416 537.542C75.5114 537.224 76.8693 537.122 78.1648 536.923C79.2117 536.761 80.2538 536.581 81.2884 536.358C83.2366 535.939 85.2079 535.304 86.801 534.093C88.5948 532.729 89.5071 530.661 90.3752 528.673C90.8907 527.492 91.4221 526.32 91.9597 525.15C92.2205 524.582 92.4837 524.016 92.7531 523.452C93.069 522.792 93.5013 522.105 93.7327 521.415C93.7657 521.315 93.9323 521.369 93.8906 521.462C93.6862 521.922 93.5992 522.446 93.4498 522.929C93.2735 523.498 93.107 524.069 92.927 524.637C92.605 525.65 92.2903 526.666 91.9486 527.674C91.3327 529.483 90.7866 531.38 89.7397 533.007C87.8246 535.983 84.401 537.182 80.9774 537.604C79.9966 537.725 79.0072 537.793 78.0191 537.848C76.7971 537.916 75.4979 538.022 74.2796 537.875C74.0935 537.853 74.0408 537.592 74.2416 537.542Z" fill="#263238"/>
<path d="M119.21 547.288C114.176 548.979 109.318 551.379 104.673 553.897C104.491 553.996 104.611 554.272 104.808 554.189C109.704 552.136 114.699 550.171 119.474 547.858C119.849 547.676 119.597 547.157 119.21 547.288Z" fill="#263238"/>
<path d="M120.684 514.542C120.671 514.377 120.374 514.34 120.376 514.518C120.415 520.193 120.045 525.187 119.554 530.492C119.326 532.954 117.297 546.563 112.923 545.571C112.191 545.405 111.818 544.701 111.703 543.624C111.564 542.328 112.064 540.738 112.283 539.45C112.769 536.601 113.159 533.743 113.408 530.865C113.876 525.493 113.899 520.121 113.231 514.765C113.209 514.59 112.949 514.603 112.949 514.781C112.955 522.217 112.756 529.639 111.617 537.005C111.07 540.545 109.243 545.874 113.035 546.419C116.898 546.973 119.396 538.047 119.867 535.605C121.184 528.792 121.236 521.435 120.684 514.542Z" fill="#263238"/>
<path d="M113.04 545.938C112.644 546.851 112.327 547.803 112.057 548.759C111.847 549.501 111.561 550.304 111.648 551.078C111.665 551.229 111.868 551.243 111.95 551.142C112.463 550.507 112.68 549.638 112.966 548.885C113.298 548.012 113.651 547.145 113.958 546.264C114.161 545.679 113.283 545.374 113.04 545.938Z" fill="#263238"/>
<path d="M6.80258 706.051C13.4049 693.917 20.2105 681.893 27.043 669.881C30.4103 663.96 33.9245 658.105 37.14 652.103C40.3163 646.173 42.4701 639.944 44.4794 633.566C48.563 620.605 52.4336 607.582 56.0837 594.499C59.7351 581.416 63.1465 568.27 66.3705 555.081C67.1774 551.783 68.059 548.485 68.7104 545.154C69.3863 541.692 69.1831 538.457 68.6945 534.99C68.2476 531.819 68.1215 528.7 68.6198 525.526C69.1121 522.389 69.9153 519.305 70.8863 516.278C71.3982 514.684 71.9528 513.104 72.5136 511.526C72.5761 511.349 72.8565 511.429 72.8002 511.611C70.8006 517.999 68.7557 524.457 69.1855 531.222C69.3925 534.474 70.2741 537.667 70.2165 540.94C70.1602 544.196 69.2823 547.389 68.5329 550.542C65.3811 563.815 61.9783 577.027 58.371 590.188C54.7637 603.348 50.9373 616.45 46.8892 629.488C44.9215 635.827 43.0799 642.268 40.2869 648.32C37.489 654.383 33.9454 660.11 30.6111 665.9C23.7198 677.866 16.7722 689.802 9.66906 701.648C8.76908 703.149 7.86052 704.645 6.95441 706.142C6.89319 706.238 6.7487 706.148 6.80258 706.051Z" fill="#263238"/>
<path d="M104.061 438.788C111.626 449.064 151.98 468.709 163.949 468.238C180.834 467.573 202.839 458.713 210.864 454.305C214.361 452.384 206.123 425.278 202.114 426.771C193.528 429.968 167.54 440.503 164.344 440.783C161.148 441.061 135.388 436.76 121.913 432.906C103.833 427.734 100.235 433.589 104.061 438.788Z" fill="#EB9481"/>
<path d="M206.889 421.848C211.702 421.12 217.162 419.909 222.159 420.923C227.156 421.936 230.072 429.165 229.715 431.015C229.358 432.866 225.24 444.06 220.226 443.138C215.211 442.216 219.949 433.906 219.956 432.855C219.964 431.804 220.025 430.47 219.06 430.391C218.095 430.312 200.06 434.935 200.06 434.935L206.889 421.848Z" fill="#EB9481"/>
<path d="M207.078 422.581C207.362 422.633 221.794 419.931 226.791 420.944C231.788 421.958 234.704 429.186 234.347 431.037C233.991 432.887 229.872 444.082 224.858 443.159C219.843 442.237 224.581 433.927 224.588 432.877C224.596 431.826 224.657 430.492 223.692 430.413C222.727 430.334 204.692 434.956 204.692 434.956L207.078 422.581Z" fill="#EB9481"/>
<path d="M223.275 442.227C222.807 441.34 222.924 440.155 222.999 439.181C223.08 438.117 223.372 437.074 223.784 436.089C224.141 435.231 224.702 434.417 224.911 433.508C225.105 432.666 224.985 431.604 224.712 430.791C224.457 430.033 223.676 430.132 223 430.234C222.006 430.383 221.009 430.67 220.042 430.935C218.994 431.222 217.952 431.534 216.909 431.838C215.838 432.151 214.72 432.419 213.696 432.865C213.621 432.898 213.643 433.022 213.732 433.009C214.666 432.873 215.578 432.59 216.492 432.36C217.528 432.1 218.566 431.845 219.608 431.605C220.58 431.38 221.543 431.104 222.519 430.896C222.864 430.822 223.567 430.605 223.915 430.752C224.282 430.907 224.293 431.859 224.321 432.174C224.408 433.161 224.078 433.924 223.637 434.787C223.213 435.618 222.849 436.477 222.601 437.375C222.372 438.201 222.227 439.106 222.318 439.964C222.405 440.789 222.827 441.519 223.108 442.289C223.146 442.4 223.328 442.327 223.275 442.227Z" fill="#263238"/>
<path d="M188.694 432.506C188.694 432.506 204.975 422.697 208.342 420.773C215.095 416.914 241.416 411.661 244.89 411.935C248.364 412.209 248.279 419.252 230.325 423.284C220.862 425.409 218.363 430.011 218.008 432.751C217.652 435.491 219.327 441.027 224.019 441.762C228.71 442.497 233.02 436.403 237.453 436.453C241.885 436.503 237.571 443.656 233.689 447.533C229.806 451.409 223.608 454.056 219.285 454.791C214.964 455.528 201.457 458.485 201.457 458.485L188.694 432.506Z" fill="#EB9481"/>
<path d="M230.427 439.623C228.414 440.63 226.09 441.984 223.761 441.645C221.352 441.293 220.091 439.492 219.348 437.386C218.598 435.261 218.371 432.955 219.338 430.859C220.21 428.971 221.753 427.446 223.522 426.336C225.71 424.963 228.154 424.093 230.639 423.39C230.75 423.359 230.688 423.199 230.574 423.225C228.245 423.768 221.05 425.209 218.602 430.724C217.603 432.977 217.921 435.209 218.663 437.383C219.348 439.387 220.516 441.413 222.745 442.008C225.46 442.734 228.257 440.98 230.553 439.711C230.653 439.654 230.532 439.569 230.427 439.623Z" fill="#263238"/>
<path d="M204.352 461.194C204.273 460.504 194.798 427.402 194.798 427.402C194.798 427.402 168.492 439.005 164.703 439.777C160.915 440.55 124.891 433.246 112.836 430.315C99.9485 427.181 95.4938 436.424 112.749 447.398C130.004 458.371 151.927 468.66 162.069 469.221C171.892 469.763 204.352 461.194 204.352 461.194Z" fill="#6AA2E5"/>
<path d="M173.436 445.56H172.158C170.964 445.56 169.993 444.612 169.993 443.446C169.993 442.509 169.21 441.745 168.25 441.745H166.901V441.333H168.25C169.444 441.333 170.415 442.281 170.415 443.446C170.415 444.383 171.196 445.147 172.158 445.147H173.436V445.56ZM203.598 458.374C203.255 458.159 202.864 458.039 202.435 458.039H201.088V458.458H202.435C202.986 458.458 203.476 458.709 203.794 459.091C203.733 458.864 203.66 458.625 203.598 458.374ZM125.747 454.656L125.477 454.907C125.869 455.123 126.273 455.338 126.665 455.553L125.747 454.656ZM177.547 466.046L176.643 465.164C175.963 464.5 175.963 463.422 176.643 462.759C177.487 461.934 177.487 460.594 176.643 459.77L175.689 458.839L175.39 459.131L176.344 460.062C177.022 460.724 177.022 461.803 176.344 462.467C175.5 463.29 175.5 464.632 176.344 465.455L177.248 466.337L177.547 466.046ZM108.898 432.733C108.225 432.076 108.225 431 108.898 430.331C109.082 430.163 109.216 429.96 109.314 429.745C109.155 429.733 108.996 429.721 108.849 429.721C108.788 429.84 108.702 429.948 108.604 430.044C107.759 430.868 107.759 432.207 108.604 433.032L109.51 433.917L109.804 433.618L108.898 432.733ZM137.833 446.92C138.512 446.258 139.619 446.258 140.297 446.92C140.706 447.319 141.25 447.539 141.828 447.539C142.406 447.539 142.949 447.319 143.358 446.92L144.312 445.989L144.013 445.697L143.059 446.628C142.381 447.29 141.274 447.29 140.596 446.628C139.752 445.805 138.378 445.805 137.535 446.628L136.631 447.51L136.93 447.802L137.833 446.92ZM186.391 450.238C187.069 449.576 188.176 449.576 188.855 450.238C189.263 450.637 189.807 450.857 190.385 450.857C190.963 450.857 191.507 450.637 191.916 450.238L192.87 449.307L192.571 449.015L191.617 449.947C190.939 450.609 189.832 450.609 189.153 449.947C188.31 449.123 186.936 449.123 186.092 449.947L185.188 450.829L185.487 451.12L186.391 450.238ZM153.963 456.697C153.963 455.76 154.745 454.996 155.705 454.996C156.898 454.996 157.869 454.048 157.869 452.882V451.634H157.447V452.882C157.447 453.82 156.664 454.583 155.705 454.583C154.511 454.583 153.54 455.531 153.54 456.697V458.014H153.962V456.697H153.963ZM188.039 437.816C188.039 436.879 188.82 436.115 189.78 436.115C190.974 436.115 191.945 435.167 191.945 434.002V432.754H191.523V434.002C191.523 434.939 190.74 435.703 189.78 435.703C188.586 435.703 187.615 436.65 187.615 437.816V439.133H188.038V437.816H188.039ZM121.899 441.005C121.899 440.067 122.681 439.304 123.642 439.304C124.836 439.304 125.807 438.356 125.807 437.191V435.943H125.384V437.191C125.384 438.128 124.602 438.892 123.642 438.892C122.448 438.892 121.477 439.841 121.477 441.005V442.323H121.899V441.005Z" fill="white"/>
<path d="M195.432 460.077C191.66 448.048 189.565 434.847 189.032 432.571C189.006 432.463 189.188 432.435 189.207 432.545C189.61 434.805 193.681 449.638 195.625 460.05C195.647 460.17 195.468 460.193 195.432 460.077Z" fill="#263238"/>
<path opacity="0.1" d="M151.149 466.658C140.019 462.844 125.178 455.302 112.75 447.4C100.493 439.606 99.1951 432.685 104.081 430.45L151.149 466.658Z" fill="black"/>
<path d="M62.7403 513.882C62.9056 514.066 133.3 515.255 133.961 514.539C134.886 513.531 124.704 446.346 113.134 431.088C110.241 427.273 100.461 426.382 95.7813 429.776C72.5887 446.592 62.1525 513.217 62.7403 513.882Z" fill="#6AA2E5"/>
<path d="M128.49 479.412C128.037 479.03 127.743 478.468 127.743 477.823C127.743 476.89 126.959 476.125 125.992 476.125H124.645V475.707H125.992C126.886 475.707 127.657 476.245 127.988 476.998C128.098 477.249 128.159 477.512 128.159 477.799C128.159 477.811 128.159 477.811 128.159 477.823C128.159 478.074 128.208 478.301 128.306 478.516L128.49 479.412ZM79.1313 458.195C78.3966 458.195 77.7599 457.74 77.515 457.107C77.4415 457.274 77.3681 457.442 77.3068 457.609C77.6864 458.207 78.3599 458.613 79.1313 458.613H80.417V458.195H79.1313ZM112.682 452.477H111.403C110.443 452.477 109.661 451.715 109.661 450.776C109.661 449.611 108.69 448.663 107.496 448.663H106.147V449.075H107.496C108.456 449.075 109.239 449.839 109.239 450.776C109.239 451.942 110.21 452.89 111.403 452.89H112.682V452.477ZM96.4147 485.702H95.1363C94.1763 485.702 93.3939 484.94 93.3939 484.001C93.3939 482.836 92.4229 481.888 91.229 481.888H89.8797V482.3H91.229C92.189 482.3 92.9715 483.063 92.9715 484.001C92.9715 485.167 93.9425 486.115 95.1363 486.115H96.4147V485.702ZM116.672 513.749H115.394C114.434 513.749 113.651 512.986 113.651 512.048C113.651 510.883 112.68 509.935 111.487 509.935H110.137V510.347H111.487C112.447 510.347 113.229 511.11 113.229 512.048C113.229 513.214 114.2 514.162 115.394 514.162H116.672V513.749ZM72.6624 511.72H71.3841C70.4241 511.72 69.6417 510.957 69.6417 510.019C69.6417 508.853 68.6707 507.905 67.4768 507.905H66.1274V508.318H67.4768C68.4368 508.318 69.2192 509.08 69.2192 510.019C69.2192 511.184 70.1902 512.132 71.3841 512.132H72.6624V511.72ZM115.028 491.99L114.124 491.108C113.445 490.444 113.445 489.366 114.124 488.703C114.533 488.304 114.758 487.773 114.758 487.209C114.758 486.644 114.533 486.114 114.124 485.714L113.17 484.783L112.872 485.075L113.825 486.006C114.505 486.67 114.505 487.748 113.825 488.411C112.982 489.235 112.982 490.576 113.825 491.4L114.729 492.282L115.028 491.99ZM108.898 432.733C108.225 432.076 108.225 431 108.898 430.331C109.314 429.936 109.535 429.41 109.535 428.836C109.535 428.777 109.535 428.729 109.523 428.669C109.376 428.609 109.229 428.55 109.07 428.502C109.18 429.04 109.033 429.625 108.604 430.044C107.759 430.869 107.759 432.207 108.604 433.032L109.51 433.917L109.804 433.618L108.898 432.733ZM79.779 478.698L78.8754 477.815C78.1958 477.152 78.1958 476.074 78.8754 475.41C79.2843 475.011 79.5097 474.48 79.5097 473.916C79.5097 473.352 79.2843 472.821 78.8754 472.422L77.9215 471.491L77.6227 471.782L78.5766 472.714C79.2562 473.377 79.2562 474.455 78.5766 475.119C77.733 475.942 77.733 477.283 78.5766 478.107L79.4803 478.989L79.779 478.698ZM122.742 499.138C123.42 498.476 124.527 498.476 125.206 499.138C125.615 499.538 126.158 499.758 126.736 499.758C127.314 499.758 127.858 499.538 128.267 499.138L129.221 498.207L128.922 497.916L127.968 498.847C127.29 499.509 126.183 499.509 125.504 498.847C124.661 498.023 123.287 498.023 122.443 498.847L121.54 499.729L121.838 500.021L122.742 499.138ZM77.9203 495.177C78.5986 494.515 79.7056 494.515 80.3839 495.177C80.7929 495.576 81.3366 495.796 81.9145 495.796C82.4925 495.796 83.0361 495.576 83.4451 495.177L84.3989 494.246L84.1002 493.954L83.1463 494.885C82.468 495.547 81.3611 495.547 80.6827 494.885C79.839 494.062 78.4652 494.062 77.6215 494.885L76.7179 495.767L77.0166 496.059L77.9203 495.177ZM91.2205 464.874C91.8988 464.212 93.0057 464.212 93.6841 464.874C94.529 465.699 95.9028 465.697 96.7453 464.874L97.6991 463.943L97.4004 463.651L96.4465 464.583C95.7681 465.244 94.6637 465.246 93.9829 464.583C93.1392 463.759 91.7654 463.759 90.9217 464.583L90.018 465.465L90.3168 465.757L91.2205 464.874ZM85.9418 512.996C86.5993 512.354 87.7466 512.353 88.4054 512.996C88.8144 513.396 89.358 513.615 89.936 513.615C90.5139 513.615 91.0576 513.396 91.4666 512.996L92.4204 512.065L92.1217 511.773L91.1678 512.705C90.4895 513.367 89.3825 513.367 88.7042 512.705C88.2952 512.305 87.7515 512.085 87.1736 512.085C86.5944 512.085 86.052 512.305 85.643 512.705L84.7381 513.587L85.0369 513.878L85.9418 512.996ZM97.6232 502.617C97.6232 501.68 98.4056 500.916 99.3656 500.916C100.559 500.916 101.53 499.968 101.53 498.802V497.555H101.108V498.802C101.108 499.74 100.326 500.503 99.3656 500.503C98.1718 500.503 97.2008 501.451 97.2008 502.617V503.934H97.6232V502.617ZM107.672 472.508C107.672 471.571 108.454 470.807 109.415 470.807C110.609 470.807 111.58 469.858 111.58 468.694V467.446H111.157V468.694C111.157 469.632 110.376 470.395 109.415 470.395C108.221 470.395 107.25 471.342 107.25 472.508V473.825H107.672V472.508ZM92.1155 446.671C92.1155 445.734 92.898 444.97 93.858 444.97C95.0518 444.97 96.0228 444.022 96.0228 442.857V441.609H95.6004V442.857C95.6004 443.794 94.8192 444.558 93.858 444.558C92.6641 444.558 91.6931 445.506 91.6931 446.671V447.989H92.1155V446.671Z" fill="white"/>
<path d="M114.597 504.172L152.282 509.074L166.509 457.931L128.825 453.029L114.597 504.172Z" fill="#455A64"/>
<path d="M116.448 504.412L154.134 509.315L168.361 458.173L130.677 453.271L116.448 504.412Z" fill="#263238"/>
<path d="M147.665 479.659C147.218 481.612 145.214 482.982 143.19 482.719C141.166 482.456 139.887 480.658 140.334 478.705C140.781 476.752 142.784 475.382 144.808 475.645C146.833 475.909 148.111 477.705 147.665 479.659Z" fill="white"/>
<path d="M85.8168 438.208C64.1217 460.149 46.0572 505.995 56.3659 510.396C65.7858 514.419 95.773 511.024 108.117 508.256C111.743 507.444 104.691 480.018 100.813 480.883C96.1256 481.927 84.1552 483.509 83.674 483.471C82.643 483.392 93.9424 452.873 97.5546 441.153C102.586 424.826 93.9632 429.968 85.8168 438.208Z" fill="#EB9481"/>
<path d="M96.095 483.925C96.095 483.925 104.66 477.318 110.468 473.254C113.709 470.986 119.621 467.584 122.781 466.981C127.51 466.079 147.875 465.259 148.185 470.075C148.465 474.435 130.877 472.971 130.877 472.971C130.877 472.971 148.758 472.917 148.108 478.227C147.458 483.536 127.811 479.302 127.811 479.302C127.811 479.302 146.184 479.649 144.627 485.021C143.449 489.081 125.433 486.225 125.433 486.225C125.433 486.225 141.224 486.629 140.197 490.856C139.062 495.526 122.263 493.907 122.263 493.907C117.801 504.221 111.695 507.765 106.497 509.042C105.288 509.34 96.095 483.925 96.095 483.925Z" fill="#EB9481"/>
<path d="M125.539 472.627C138.707 471.605 145.485 475.043 145.287 474.987C140.585 473.671 133.072 473.193 130.97 473.091C128.874 472.99 127.629 472.808 125.533 472.705C125.479 472.703 125.488 472.631 125.539 472.627Z" fill="#263238"/>
<path d="M124.178 480C130.38 479.122 137.631 480.108 140.075 480.83C140.273 480.889 140.2 480.953 139.993 480.938C137.325 480.737 126.838 480.138 124.173 480.064C124.13 480.061 124.138 480.006 124.178 480Z" fill="#263238"/>
<path d="M122.567 486.271C128.172 485.892 130.723 486.275 134.854 487.267C135.053 487.315 134.938 487.417 134.729 487.396C130.651 486.99 127.455 486.643 122.572 486.411C122.497 486.408 122.48 486.277 122.567 486.271Z" fill="#263238"/>
<path d="M84.7871 482.598C83.3214 481.358 95.309 452.64 98.6285 439.544C101.947 426.449 95.7351 427.121 85.7998 437.608C75.1579 448.842 57.4105 473.73 53.1959 499.492C51.8796 507.538 50.1506 513.276 69.2388 513.106C88.8279 512.933 102.385 510.554 102.385 510.554L98.4779 481.06C98.4779 481.06 85.2108 482.957 84.7871 482.598Z" fill="#6AA2E5"/>
<path d="M80.4133 458.61H79.1349C77.9411 458.61 76.9701 457.663 76.9701 456.497C76.9701 455.56 76.1889 454.796 75.2277 454.796H73.8783V454.384H75.2277C76.4215 454.384 77.3925 455.332 77.3925 456.497C77.3925 457.434 78.1749 458.198 79.1349 458.198H80.4133V458.61ZM96.4146 485.702H95.1363C94.1763 485.702 93.3939 484.94 93.3939 484.001C93.3939 482.836 92.4228 481.888 91.229 481.888H89.8796V482.3H91.229C92.189 482.3 92.9714 483.063 92.9714 484.001C92.9714 485.167 93.9424 486.115 95.1363 486.115H96.4146V485.702ZM72.6624 511.719H71.384C70.4241 511.719 69.6416 510.957 69.6416 510.018C69.6416 508.853 68.6706 507.905 67.4768 507.905H66.1274V508.317H67.4768C68.4368 508.317 69.2192 509.08 69.2192 510.018C69.2192 511.184 70.1902 512.132 71.384 512.132H72.6624V511.719ZM79.779 478.697L78.8753 477.815C78.1957 477.152 78.1957 476.074 78.8753 475.41C79.2843 475.011 79.5096 474.48 79.5096 473.916C79.5096 473.352 79.2843 472.821 78.8753 472.422L77.9215 471.491L77.6227 471.782L78.5766 472.713C79.2562 473.377 79.2562 474.455 78.5766 475.119C77.7329 475.942 77.7329 477.283 78.5766 478.107L79.4802 478.989L79.779 478.697ZM56.7039 501.374L55.8002 500.491C55.1207 499.828 55.1207 498.75 55.8002 498.086C56.2092 497.687 56.4345 497.156 56.4345 496.592C56.4345 496.028 56.2092 495.497 55.8002 495.098L54.8464 494.167L54.5476 494.458L55.5015 495.39C56.1811 496.053 56.1811 497.131 55.5015 497.795C54.6578 498.618 54.6578 499.959 55.5015 500.783L56.4051 501.665L56.7039 501.374ZM77.9202 495.177C78.5986 494.515 79.7055 494.515 80.3839 495.177C80.7929 495.576 81.3365 495.796 81.9145 495.796C82.4924 495.796 83.0361 495.576 83.4451 495.177L84.3989 494.246L84.1001 493.954L83.1463 494.885C82.4679 495.547 81.361 495.547 80.6827 494.885C79.839 494.062 78.4651 494.062 77.6215 494.885L76.7178 495.767L77.0166 496.059L77.9202 495.177ZM65.7601 467.722L64.805 468.654C64.5111 468.941 64.1438 469.108 63.7764 469.132L63.556 469.562C64.1193 469.574 64.6825 469.371 65.1111 468.953L66.0662 468.02L65.7601 467.722ZM86.074 512.392C86.7352 512.357 87.3597 512.297 87.9842 512.249C87.7393 512.141 87.4576 512.082 87.176 512.082C86.7719 512.082 86.4046 512.189 86.074 512.392ZM92.1228 511.771L92.0126 511.878C92.0861 511.867 92.1473 511.867 92.2086 511.855L92.1228 511.771ZM100.927 499.554C100.645 500.116 100.057 500.499 99.3717 500.499C98.1717 500.499 97.2044 501.455 97.2044 502.614V503.929H97.6207V502.614C97.6207 501.682 98.4044 500.917 99.3717 500.917C100.033 500.917 100.621 500.63 101.012 500.164V500.152L100.927 499.554ZM92.1155 446.671C92.1155 445.734 92.8979 444.97 93.8579 444.97C95.0518 444.97 96.0228 444.022 96.0228 442.857V441.609H95.6003V442.857C95.6003 443.794 94.8191 444.558 93.8579 444.558C92.6641 444.558 91.6931 445.506 91.6931 446.671V447.988H92.1155V446.671ZM62.645 487.268C62.645 486.33 63.4275 485.567 64.3874 485.567C65.5813 485.567 66.5523 484.619 66.5523 483.454V482.206H66.1298V483.454C66.1298 484.391 65.3486 485.155 64.3874 485.155C63.1936 485.155 62.2226 486.104 62.2226 487.268V488.586H62.645V487.268Z" fill="white"/>
<path d="M95.6503 510.259C93.3091 498.585 92.6626 485.969 92.3895 483.776C92.3773 483.672 92.5487 483.664 92.5573 483.769C92.7104 485.932 95.0503 500.271 95.834 510.25C95.8438 510.366 95.6736 510.371 95.6503 510.259Z" fill="#263238"/>
<path d="M70.2575 484.775C71.4085 484.411 72.671 484.273 73.8624 484.08C74.9864 483.898 76.1056 483.696 77.2285 483.512C77.7146 483.432 78.1994 483.356 78.6856 483.277C78.6403 483.271 78.5937 483.267 78.5484 483.261C77.8994 483.169 77.2505 483.074 76.6015 482.973C75.9538 482.873 75.3085 482.727 74.6558 482.671C74.5481 482.661 74.5567 482.494 74.6607 482.508C75.3073 482.598 75.9611 482.598 76.6125 482.643C77.2884 482.69 77.9631 482.744 78.639 482.799C79.2317 482.848 79.8219 482.927 80.4121 482.997C81.4969 482.827 82.5843 482.672 83.6728 482.527C84.1626 480.441 84.934 478.378 85.6063 476.344C86.3116 474.214 87.0377 472.092 87.8029 469.982C88.5548 467.91 89.347 465.852 90.1845 463.813C90.6033 462.791 92.8563 456.515 93.5898 454.88C93.6351 454.777 93.771 454.827 93.7392 454.947C93.3045 456.603 91.0062 463.046 90.6694 464.092C90.4233 464.854 90.1699 465.613 89.9213 466.373C89.9519 466.336 89.9849 466.297 90.0143 466.26C90.4576 465.698 90.8972 465.134 91.3355 464.568C92.2233 463.422 93.1025 462.26 93.8714 461.035C93.9375 460.929 94.0967 461.03 94.0367 461.136C93.3069 462.413 92.6078 463.704 91.8315 464.954C91.4445 465.577 91.0404 466.193 90.6119 466.789C90.2017 467.361 89.7829 468.007 89.254 468.479C89.2454 468.487 89.2356 468.483 89.227 468.49C89.0213 469.114 88.8205 469.739 88.6135 470.363C87.9193 472.452 87.2189 474.538 86.532 476.627C85.9026 478.54 85.3577 480.513 84.6414 482.399C86.8687 482.125 89.1009 481.889 91.3319 481.64C92.4706 481.514 93.6094 481.397 94.7494 481.278C95.9677 481.152 97.2448 481.165 98.4485 480.966C98.555 480.948 98.5917 481.113 98.4877 481.124C97.2877 481.248 96.0718 481.596 94.8767 481.793C93.7539 481.979 92.6298 482.165 91.5057 482.342C89.1241 482.717 86.7475 483.108 84.361 483.449C82.0088 483.785 79.6443 484.023 77.2811 484.27C76.097 484.395 74.9118 484.502 73.7277 484.628C72.5938 484.748 71.411 484.931 70.2698 484.888C70.2 484.883 70.1963 484.794 70.2575 484.775Z" fill="#263238"/>
<path d="M62.9167 512.829C75.7258 512.936 93.5675 511.601 102.151 510.55C102.269 510.536 102.291 510.693 102.168 510.711C100.258 510.996 82.9857 514.312 62.9044 513.219C62.6424 513.204 62.6632 512.826 62.9167 512.829Z" fill="#263238"/>
<path d="M111.349 440.783C108.381 441.844 100.905 436.534 98.8978 431.675C98.7619 431.342 101.609 418.979 101.912 416.472C101.972 415.957 117.555 422.15 117.555 422.15C117.555 422.15 115.335 427.222 114.834 431.596C114.796 431.962 114.793 432.306 114.821 432.637C114.821 432.685 114.827 432.744 114.823 432.811C114.913 434.803 114.646 439.605 111.349 440.783Z" fill="#EB9481"/>
<path d="M102.94 416.673C103.084 420.545 104.277 431.483 113.161 432.712C113.758 432.787 114.308 432.826 114.823 432.81C114.821 432.748 114.82 432.687 114.815 432.635C114.796 432.306 114.8 431.959 114.838 431.595C115.336 427.221 117.552 422.146 117.552 422.146C117.552 422.146 106.433 417.73 102.94 416.673Z" fill="#263238"/>
<path d="M99.8821 400.054C98.4103 405.794 102.321 421.969 106.63 425.403C112.876 430.383 122.676 430.4 126.901 423.167C130.998 416.155 125.519 395.164 120.747 392.085C113.717 387.551 102.054 391.575 99.8821 400.054Z" fill="#EB9481"/>
<path d="M117.027 409.712C117.009 409.672 116.952 409.782 116.965 409.826C117.252 410.899 117.396 412.174 116.479 412.756C116.45 412.774 116.466 412.828 116.502 412.815C117.683 412.374 117.475 410.682 117.027 409.712Z" fill="#263238"/>
<path d="M115.776 408.803C113.965 409.067 114.639 412.583 116.317 412.339C117.967 412.097 117.293 408.582 115.776 408.803Z" fill="#263238"/>
<path d="M123.16 408.51C123.16 408.467 123.257 408.546 123.264 408.59C123.438 409.686 123.825 410.911 124.904 411.09C124.937 411.096 124.944 411.151 124.906 411.152C123.643 411.208 123.144 409.575 123.16 408.51Z" fill="#263238"/>
<path d="M123.938 407.19C125.707 406.73 126.52 410.217 124.882 410.644C123.269 411.064 122.455 407.576 123.938 407.19Z" fill="#263238"/>
<path d="M113.967 408.039C114.435 407.829 114.831 407.559 115.27 407.305C115.767 407.018 116.193 406.839 116.453 406.309C116.593 406.025 116.429 405.59 116.158 405.432C115.529 405.064 114.831 405.268 114.218 405.59C113.553 405.939 113.133 406.374 112.845 407.053C112.563 407.71 113.35 408.315 113.967 408.039Z" fill="#263238"/>
<path d="M124.791 404.405C124.277 404.417 123.801 404.344 123.29 404.304C122.715 404.258 122.252 404.281 121.779 403.915C121.526 403.719 121.477 403.259 121.65 403C122.05 402.398 122.769 402.284 123.463 402.31C124.217 402.339 124.791 402.549 125.356 403.035C125.905 403.508 125.471 404.39 124.791 404.405Z" fill="#263238"/>
<path d="M117.575 419.81C117.891 420.015 118.225 420.318 118.636 420.277C119.031 420.238 119.453 419.984 119.784 419.784C119.817 419.764 119.86 419.794 119.842 419.83C119.633 420.301 119.073 420.674 118.54 420.68C118.018 420.686 117.686 420.306 117.478 419.877C117.447 419.818 117.528 419.779 117.575 419.81Z" fill="#263238"/>
<path d="M118.122 416.334C118.927 417.165 119.945 417.514 120.973 417.521C121.434 417.527 121.903 417.456 122.351 417.332C122.44 417.314 122.528 417.288 122.607 417.255C122.686 417.23 122.759 417.209 122.844 417.174C122.97 417.132 123.022 417.014 123.022 416.89L123.021 416.881C123.012 416.842 123.006 416.81 122.989 416.771C122.989 416.771 122.989 416.771 122.988 416.763L122.967 416.667C122.83 415.825 122.501 414.565 122.501 414.565C122.844 414.66 124.579 415.071 124.47 414.638C123.553 411.051 122.533 407.063 120.845 403.683C120.796 403.568 120.613 403.631 120.646 403.748C121.388 407.229 122.751 410.559 123.553 414.043C123.006 413.948 122.106 413.749 121.658 413.84C121.543 413.896 122.336 416.264 122.367 416.648C122.367 416.648 122.37 416.664 122.367 416.69C120.959 417.134 119.788 416.908 118.206 416.217C118.112 416.17 118.038 416.26 118.122 416.334Z" fill="#263238"/>
<path d="M121.763 417C121.763 417 121.194 418.143 120.22 418.695C119.862 418.899 119.459 419.028 119.003 418.995C118.069 418.929 117.893 418.135 117.926 417.422C117.95 416.836 118.124 416.303 118.124 416.303C118.124 416.303 119.654 417.254 121.763 417Z" fill="#263238"/>
<path d="M120.22 418.695C119.862 418.899 119.459 419.028 119.003 418.995C118.069 418.929 117.893 418.135 117.926 417.422C118.899 417.343 119.966 417.803 120.22 418.695Z" fill="#FF9CBD"/>
<path d="M101.813 414.878C101.813 414.878 95.4055 405.62 95.6761 400.076C95.7985 397.569 99.194 395.72 99.194 395.72C99.194 395.72 97.9989 392.736 100.729 389.963C103.608 387.039 110.957 387.305 110.957 387.305C110.957 387.305 115.358 380.384 122.204 382.71C129.05 385.038 125.057 392.676 125.057 392.676C125.057 392.676 127.695 395.967 121.816 398.927C116.093 401.809 103.989 399.837 103.989 399.837C103.989 399.837 105.261 405.779 104.421 411.95C104.109 414.237 101.813 414.878 101.813 414.878Z" fill="#263238"/>
<path d="M112.12 387.337C110.606 386.781 108.968 386.643 107.356 386.725C105.927 386.796 104.464 387.041 103.138 387.581C100.768 388.544 98.7092 390.385 98.4362 392.993C98.2978 394.304 98.7056 395.56 99.5578 396.573C99.5921 396.615 99.6545 396.553 99.6178 396.512C97.9696 394.713 98.637 391.756 100.16 390.108C101.883 388.243 104.622 387.435 107.11 387.211C108.776 387.061 110.437 387.24 112.084 387.48C112.18 387.493 112.21 387.369 112.12 387.337Z" fill="#263238"/>
<path d="M127.165 385.639C126.513 383.833 124.843 382.732 123.005 382.256C120.911 381.714 118.643 381.947 116.663 382.781C114.646 383.632 112.952 385.069 111.659 386.794C111.631 386.832 111.698 386.881 111.728 386.843C114.103 383.808 117.968 381.955 121.909 382.571C123.672 382.846 125.461 383.639 126.353 385.227C127.172 386.686 127.108 388.595 126.451 390.099C125.638 391.957 124.031 393.41 122.352 394.532C122.313 394.557 122.35 394.616 122.39 394.592C124.024 393.629 125.538 392.434 126.507 390.801C127.424 389.26 127.782 387.349 127.165 385.639Z" fill="#263238"/>
<path d="M123.283 399.167C120.686 400.414 117.793 400.921 114.918 401.004C111.907 401.092 108.932 400.794 105.975 400.248C104.259 399.931 102.555 399.552 100.861 399.142C100.806 399.129 100.788 399.207 100.84 399.223C103.843 400.248 106.903 401.131 110.069 401.521C113.017 401.883 115.955 401.768 118.833 401.016C120.402 400.608 121.903 399.998 123.317 399.221C123.354 399.201 123.32 399.149 123.283 399.167Z" fill="#263238"/>
<path d="M104.138 413.167C104.138 413.167 99.9763 408.156 97.6217 409.642C95.2658 411.127 98.6649 418.574 101.618 419.419C104.572 420.265 105.428 417.61 105.428 417.61L104.138 413.167Z" fill="#EB9481"/>
<path d="M98.6505 411.752C98.604 411.752 98.5991 411.815 98.6407 411.829C100.716 412.486 101.912 414.238 102.794 416.081C102.14 415.393 101.294 415.051 100.345 415.818C100.295 415.858 100.351 415.935 100.408 415.919C101.222 415.688 101.828 415.788 102.434 416.395C102.863 416.825 103.175 417.385 103.497 417.894C103.603 418.064 103.923 417.946 103.84 417.748C103.834 417.734 103.826 417.718 103.82 417.704C103.687 415.189 101.43 411.813 98.6505 411.752Z" fill="#263238"/>
<g filter="url(#filter1_d_111_839)">
<path d="M313.552 135.905C294.747 141.491 284.027 161.275 289.613 180.08C291.871 187.68 296.447 193.956 302.357 198.374L303.055 216.323L316.526 204.762C322.082 205.92 327.991 205.741 333.789 204.018C352.594 198.432 363.314 178.648 357.728 159.843C352.141 141.039 332.358 130.317 313.552 135.905Z" fill="white"/>
<path d="M313.552 135.905C307.313 137.825 301.498 141.322 297.165 146.258C296.006 147.422 295.115 148.81 294.112 150.103C293.282 151.514 292.333 152.862 291.68 154.371C290.189 157.293 289.182 160.451 288.562 163.67C287.863 166.89 287.862 170.215 288.076 173.49C288.291 175.123 288.446 176.767 288.89 178.359C289.229 179.973 289.703 181.556 290.295 183.097C292.645 189.271 296.766 194.765 302.051 198.781L301.847 198.391L302.426 216.345L302.467 217.648L303.463 216.798L316.974 205.283L316.385 205.436C327.143 207.807 338.835 204.638 347.108 197.474C351.253 193.899 354.556 189.377 356.712 184.362C358.878 179.349 359.793 173.836 359.522 168.414C359.236 162.99 357.737 157.635 355.114 152.895C352.472 148.165 348.751 144.071 344.342 140.969C335.574 134.63 323.855 132.808 313.552 135.905ZM313.552 135.905C323.878 132.878 335.544 134.789 344.214 141.153C348.544 144.308 352.15 148.431 354.673 153.137C357.177 157.854 358.55 163.144 358.737 168.452C358.908 173.757 357.92 179.111 355.732 183.937C353.536 188.755 350.294 193.079 346.286 196.514C342.297 199.997 337.416 202.327 332.338 203.705C327.226 204.998 321.832 205.13 316.666 204.088L316.33 204.019L316.075 204.24L302.644 215.847L303.682 216.299L302.867 198.355L302.856 198.108L302.663 197.966C297.46 194.153 293.339 188.868 290.927 182.852C290.322 181.349 289.828 179.802 289.468 178.221C289.003 176.662 288.823 175.047 288.583 173.442C288.318 170.218 288.257 166.932 288.895 163.732C289.456 160.534 290.385 157.371 291.863 154.461C292.503 152.955 293.436 151.609 294.253 150.197C295.242 148.902 296.119 147.515 297.266 146.348C301.548 141.4 307.324 137.867 313.552 135.905Z" fill="#263238"/>
<path d="M309.291 164.551C310.049 157.786 314.799 151.1 323.005 151.2C331.2 151.3 335.786 158.1 336.378 164.881C337.288 175.351 330.119 184.737 322.492 193.287C315.066 184.552 308.126 174.995 309.291 164.551ZM322.748 172.237C326.846 172.287 330.206 169.007 330.256 164.911C330.306 160.813 327.027 157.453 322.929 157.403C318.821 157.353 315.462 160.632 315.412 164.73C315.362 168.827 318.64 172.187 322.748 172.237Z" fill="#F708A5"/>
</g>
<path d="M77.344 221.608C77.152 221.944 76.944 222.192 76.72 222.352C76.512 222.496 76.248 222.568 75.928 222.568C75.592 222.568 75.224 222.448 74.824 222.208C74.44 221.952 73.976 221.672 73.432 221.368C72.888 221.064 72.248 220.792 71.512 220.552C70.792 220.296 69.936 220.168 68.944 220.168C68.048 220.168 67.264 220.28 66.592 220.504C65.92 220.712 65.352 221.008 64.888 221.392C64.44 221.776 64.104 222.24 63.88 222.784C63.656 223.312 63.544 223.896 63.544 224.536C63.544 225.352 63.768 226.032 64.216 226.576C64.68 227.12 65.288 227.584 66.04 227.968C66.792 228.352 67.648 228.696 68.608 229C69.568 229.304 70.552 229.632 71.56 229.984C72.568 230.32 73.552 230.72 74.512 231.184C75.472 231.632 76.328 232.208 77.08 232.912C77.832 233.6 78.432 234.448 78.88 235.456C79.344 236.464 79.576 237.688 79.576 239.128C79.576 240.696 79.304 242.168 78.76 243.544C78.232 244.904 77.448 246.096 76.408 247.12C75.384 248.128 74.128 248.928 72.64 249.52C71.152 250.096 69.448 250.384 67.528 250.384C66.424 250.384 65.336 250.272 64.264 250.048C63.192 249.84 62.16 249.536 61.168 249.136C60.192 248.736 59.272 248.256 58.408 247.696C57.544 247.136 56.776 246.512 56.104 245.824L58 242.728C58.16 242.504 58.368 242.32 58.624 242.176C58.88 242.016 59.152 241.936 59.44 241.936C59.84 241.936 60.272 242.104 60.736 242.44C61.2 242.76 61.752 243.12 62.392 243.52C63.032 243.92 63.776 244.288 64.624 244.624C65.488 244.944 66.52 245.104 67.72 245.104C69.56 245.104 70.984 244.672 71.992 243.808C73 242.928 73.504 241.672 73.504 240.04C73.504 239.128 73.272 238.384 72.808 237.808C72.36 237.232 71.76 236.752 71.008 236.368C70.256 235.968 69.4 235.632 68.44 235.36C67.48 235.088 66.504 234.792 65.512 234.472C64.52 234.152 63.544 233.768 62.584 233.32C61.624 232.872 60.768 232.288 60.016 231.568C59.264 230.848 58.656 229.952 58.192 228.88C57.744 227.792 57.52 226.456 57.52 224.872C57.52 223.608 57.768 222.376 58.264 221.176C58.776 219.976 59.512 218.912 60.472 217.984C61.432 217.056 62.616 216.312 64.024 215.752C65.432 215.192 67.048 214.912 68.872 214.912C70.92 214.912 72.808 215.232 74.536 215.872C76.264 216.512 77.736 217.408 78.952 218.56L77.344 221.608ZM83.803 250V225.376H87.427C88.195 225.376 88.699 225.736 88.939 226.456L89.323 228.28C89.755 227.8 90.203 227.36 90.667 226.96C91.147 226.56 91.651 226.216 92.179 225.928C92.723 225.64 93.299 225.416 93.907 225.256C94.531 225.08 95.211 224.992 95.947 224.992C97.499 224.992 98.771 225.416 99.763 226.264C100.771 227.096 101.523 228.208 102.019 229.6C102.403 228.784 102.883 228.088 103.459 227.512C104.035 226.92 104.667 226.44 105.355 226.072C106.043 225.704 106.771 225.432 107.539 225.256C108.323 225.08 109.107 224.992 109.891 224.992C111.251 224.992 112.459 225.2 113.515 225.616C114.571 226.032 115.459 226.64 116.179 227.44C116.899 228.24 117.443 229.216 117.811 230.368C118.195 231.52 118.387 232.84 118.387 234.328V250H112.459V234.328C112.459 232.76 112.115 231.584 111.427 230.8C110.739 230 109.731 229.6 108.403 229.6C107.795 229.6 107.227 229.704 106.699 229.912C106.187 230.12 105.731 230.424 105.331 230.824C104.947 231.208 104.643 231.696 104.419 232.288C104.195 232.88 104.083 233.56 104.083 234.328V250H98.131V234.328C98.131 232.68 97.795 231.48 97.123 230.728C96.467 229.976 95.499 229.6 94.219 229.6C93.355 229.6 92.547 229.816 91.795 230.248C91.059 230.664 90.371 231.24 89.731 231.976V250H83.803ZM137.03 239.488C135.318 239.568 133.878 239.72 132.71 239.944C131.542 240.152 130.606 240.424 129.902 240.76C129.198 241.096 128.694 241.488 128.39 241.936C128.086 242.384 127.934 242.872 127.934 243.4C127.934 244.44 128.238 245.184 128.846 245.632C129.47 246.08 130.278 246.304 131.27 246.304C132.486 246.304 133.534 246.088 134.414 245.656C135.31 245.208 136.182 244.536 137.03 243.64V239.488ZM123.446 228.808C126.278 226.216 129.686 224.92 133.67 224.92C135.11 224.92 136.398 225.16 137.534 225.64C138.67 226.104 139.63 226.76 140.414 227.608C141.198 228.44 141.79 229.44 142.19 230.608C142.606 231.776 142.814 233.056 142.814 234.448V250H140.126C139.566 250 139.134 249.92 138.83 249.76C138.526 249.584 138.286 249.24 138.11 248.728L137.582 246.952C136.958 247.512 136.35 248.008 135.758 248.44C135.166 248.856 134.55 249.208 133.91 249.496C133.27 249.784 132.582 250 131.846 250.144C131.126 250.304 130.326 250.384 129.446 250.384C128.406 250.384 127.446 250.248 126.566 249.976C125.686 249.688 124.926 249.264 124.286 248.704C123.646 248.144 123.15 247.448 122.798 246.616C122.446 245.784 122.27 244.816 122.27 243.712C122.27 243.088 122.374 242.472 122.582 241.864C122.79 241.24 123.126 240.648 123.59 240.088C124.07 239.528 124.686 239 125.438 238.504C126.19 238.008 127.11 237.576 128.198 237.208C129.302 236.84 130.582 236.544 132.038 236.32C133.494 236.08 135.158 235.936 137.03 235.888V234.448C137.03 232.8 136.678 231.584 135.974 230.8C135.27 230 134.254 229.6 132.926 229.6C131.966 229.6 131.166 229.712 130.526 229.936C129.902 230.16 129.35 230.416 128.87 230.704C128.39 230.976 127.95 231.224 127.55 231.448C127.166 231.672 126.734 231.784 126.254 231.784C125.838 231.784 125.486 231.68 125.198 231.472C124.91 231.248 124.678 230.992 124.502 230.704L123.446 228.808ZM153.989 229.648C154.757 228.176 155.669 227.024 156.725 226.192C157.781 225.344 159.029 224.92 160.469 224.92C161.605 224.92 162.517 225.168 163.205 225.664L162.821 230.104C162.741 230.392 162.621 230.6 162.461 230.728C162.317 230.84 162.117 230.896 161.861 230.896C161.621 230.896 161.261 230.856 160.781 230.776C160.317 230.696 159.861 230.656 159.413 230.656C158.757 230.656 158.173 230.752 157.661 230.944C157.149 231.136 156.685 231.416 156.269 231.784C155.869 232.136 155.509 232.568 155.189 233.08C154.885 233.592 154.597 234.176 154.325 234.832V250H148.397V225.376H151.877C152.485 225.376 152.909 225.488 153.149 225.712C153.389 225.92 153.549 226.304 153.629 226.864L153.989 229.648ZM174.511 250.384C172.367 250.384 170.719 249.784 169.567 248.584C168.431 247.368 167.863 245.696 167.863 243.568V229.816H165.343C165.023 229.816 164.751 229.712 164.527 229.504C164.303 229.296 164.191 228.984 164.191 228.568V226.216L168.151 225.568L169.399 218.848C169.479 218.528 169.631 218.28 169.855 218.104C170.079 217.928 170.367 217.84 170.719 217.84H173.791V225.592H180.367V229.816H173.791V243.16C173.791 243.928 173.975 244.528 174.343 244.96C174.727 245.392 175.247 245.608 175.903 245.608C176.271 245.608 176.575 245.568 176.815 245.488C177.071 245.392 177.287 245.296 177.463 245.2C177.655 245.104 177.823 245.016 177.967 244.936C178.111 244.84 178.255 244.792 178.399 244.792C178.575 244.792 178.719 244.84 178.831 244.936C178.943 245.016 179.063 245.144 179.191 245.32L180.967 248.2C180.103 248.92 179.111 249.464 177.991 249.832C176.871 250.2 175.711 250.384 174.511 250.384ZM207.258 231.808C208.474 231.808 209.53 231.656 210.426 231.352C211.338 231.048 212.082 230.632 212.658 230.104C213.25 229.56 213.69 228.92 213.978 228.184C214.266 227.448 214.41 226.64 214.41 225.76C214.41 224 213.826 222.648 212.658 221.704C211.506 220.76 209.738 220.288 207.354 220.288H203.226V231.808H207.258ZM223.866 250H218.034C216.93 250 216.13 249.568 215.634 248.704L208.338 237.592C208.066 237.176 207.762 236.88 207.426 236.704C207.106 236.528 206.626 236.44 205.986 236.44H203.226V250H196.77V215.296H207.354C209.706 215.296 211.722 215.544 213.402 216.04C215.098 216.52 216.482 217.2 217.554 218.08C218.642 218.96 219.442 220.016 219.954 221.248C220.466 222.464 220.722 223.808 220.722 225.28C220.722 226.448 220.546 227.552 220.194 228.592C219.858 229.632 219.362 230.576 218.706 231.424C218.066 232.272 217.266 233.016 216.306 233.656C215.362 234.296 214.282 234.8 213.066 235.168C213.482 235.408 213.866 235.696 214.218 236.032C214.57 236.352 214.89 236.736 215.178 237.184L223.866 250ZM235.98 224.992C237.804 224.992 239.46 225.288 240.948 225.88C242.452 226.472 243.732 227.312 244.788 228.4C245.86 229.488 246.684 230.816 247.26 232.384C247.836 233.952 248.124 235.704 248.124 237.64C248.124 239.592 247.836 241.352 247.26 242.92C246.684 244.488 245.86 245.824 244.788 246.928C243.732 248.032 242.452 248.88 240.948 249.472C239.46 250.064 237.804 250.36 235.98 250.36C234.14 250.36 232.468 250.064 230.964 249.472C229.46 248.88 228.172 248.032 227.1 246.928C226.044 245.824 225.22 244.488 224.628 242.92C224.052 241.352 223.764 239.592 223.764 237.64C223.764 235.704 224.052 233.952 224.628 232.384C225.22 230.816 226.044 229.488 227.1 228.4C228.172 227.312 229.46 226.472 230.964 225.88C232.468 225.288 234.14 224.992 235.98 224.992ZM235.98 245.8C238.028 245.8 239.54 245.112 240.516 243.736C241.508 242.36 242.004 240.344 242.004 237.688C242.004 235.032 241.508 233.008 240.516 231.616C239.54 230.224 238.028 229.528 235.98 229.528C233.9 229.528 232.356 230.232 231.348 231.64C230.356 233.032 229.86 235.048 229.86 237.688C229.86 240.328 230.356 242.344 231.348 243.736C232.356 245.112 233.9 245.8 235.98 245.8ZM273.863 225.376V250H270.239C269.455 250 268.959 249.64 268.751 248.92L268.343 246.952C267.335 247.976 266.223 248.808 265.007 249.448C263.791 250.072 262.359 250.384 260.711 250.384C259.367 250.384 258.175 250.16 257.135 249.712C256.111 249.248 255.247 248.6 254.543 247.768C253.839 246.936 253.303 245.952 252.935 244.816C252.583 243.664 252.407 242.4 252.407 241.024V225.376H258.335V241.024C258.335 242.528 258.679 243.696 259.367 244.528C260.071 245.344 261.119 245.752 262.511 245.752C263.535 245.752 264.495 245.528 265.391 245.08C266.287 244.616 267.135 243.984 267.935 243.184V225.376H273.863ZM287.949 250.384C285.805 250.384 284.157 249.784 283.005 248.584C281.869 247.368 281.301 245.696 281.301 243.568V229.816H278.781C278.461 229.816 278.189 229.712 277.965 229.504C277.741 229.296 277.629 228.984 277.629 228.568V226.216L281.589 225.568L282.837 218.848C282.917 218.528 283.069 218.28 283.293 218.104C283.517 217.928 283.805 217.84 284.157 217.84H287.229V225.592H293.805V229.816H287.229V243.16C287.229 243.928 287.413 244.528 287.781 244.96C288.165 245.392 288.685 245.608 289.341 245.608C289.709 245.608 290.013 245.568 290.253 245.488C290.509 245.392 290.725 245.296 290.901 245.2C291.093 245.104 291.261 245.016 291.405 244.936C291.549 244.84 291.693 244.792 291.837 244.792C292.013 244.792 292.157 244.84 292.269 244.936C292.381 245.016 292.501 245.144 292.629 245.32L294.405 248.2C293.541 248.92 292.549 249.464 291.429 249.832C290.309 250.2 289.149 250.384 287.949 250.384ZM313.276 234.856C313.276 234.088 313.164 233.368 312.94 232.696C312.732 232.008 312.412 231.408 311.98 230.896C311.548 230.384 310.996 229.984 310.324 229.696C309.668 229.392 308.9 229.24 308.02 229.24C306.308 229.24 304.956 229.728 303.964 230.704C302.988 231.68 302.364 233.064 302.092 234.856H313.276ZM301.972 238.432C302.068 239.696 302.292 240.792 302.644 241.72C302.996 242.632 303.46 243.392 304.036 244C304.612 244.592 305.292 245.04 306.076 245.344C306.876 245.632 307.756 245.776 308.716 245.776C309.676 245.776 310.5 245.664 311.188 245.44C311.892 245.216 312.5 244.968 313.012 244.696C313.54 244.424 313.996 244.176 314.38 243.952C314.78 243.728 315.164 243.616 315.532 243.616C316.028 243.616 316.396 243.8 316.636 244.168L318.34 246.328C317.684 247.096 316.948 247.744 316.132 248.272C315.316 248.784 314.46 249.2 313.564 249.52C312.684 249.824 311.78 250.04 310.852 250.168C309.94 250.296 309.052 250.36 308.188 250.36C306.476 250.36 304.884 250.08 303.412 249.52C301.94 248.944 300.66 248.104 299.572 247C298.484 245.88 297.628 244.504 297.004 242.872C296.38 241.224 296.068 239.32 296.068 237.16C296.068 235.48 296.34 233.904 296.884 232.432C297.428 230.944 298.204 229.656 299.212 228.568C300.236 227.464 301.476 226.592 302.932 225.952C304.404 225.312 306.06 224.992 307.9 224.992C309.452 224.992 310.884 225.24 312.196 225.736C313.508 226.232 314.636 226.96 315.58 227.92C316.524 228.864 317.26 230.032 317.788 231.424C318.332 232.8 318.604 234.376 318.604 236.152C318.604 237.048 318.508 237.656 318.316 237.976C318.124 238.28 317.756 238.432 317.212 238.432H301.972Z" fill="black"/>
</g>
<defs>
<filter id="filter0_d_111_839" x="-26.0137" y="146" width="502.238" height="517.505" filterUnits="userSpaceOnUse" color-interpolation-filters="sRGB">
<feFlood flood-opacity="0" result="BackgroundImageFix"/>
<feColorMatrix in="SourceAlpha" type="matrix" values="0 0 0 0 0 0 0 0 0 0 0 0 0 0 0 0 0 0 127 0" result="hardAlpha"/>
<feOffset dy="4"/>
<feGaussianBlur stdDeviation="2"/>
<feComposite in2="hardAlpha" operator="out"/>
<feColorMatrix type="matrix" values="0 0 0 0 0 0 0 0 0 0 0 0 0 0 0 0 0 0 0.25 0"/>
<feBlend mode="normal" in2="BackgroundImageFix" result="effect1_dropShadow_111_839"/>
<feBlend mode="normal" in="SourceGraphic" in2="effect1_dropShadow_111_839" result="shape"/>
</filter>
<filter id="filter1_d_111_839" x="283.951" y="134.425" width="79.6169" height="91.2229" filterUnits="userSpaceOnUse" color-interpolation-filters="sRGB">
<feFlood flood-opacity="0" result="BackgroundImageFix"/>
<feColorMatrix in="SourceAlpha" type="matrix" values="0 0 0 0 0 0 0 0 0 0 0 0 0 0 0 0 0 0 127 0" result="hardAlpha"/>
<feOffset dy="4"/>
<feGaussianBlur stdDeviation="2"/>
<feComposite in2="hardAlpha" operator="out"/>
<feColorMatrix type="matrix" values="0 0 0 0 0 0 0 0 0 0 0 0 0 0 0 0 0 0 0.25 0"/>
<feBlend mode="normal" in2="BackgroundImageFix" result="effect1_dropShadow_111_839"/>
<feBlend mode="normal" in="SourceGraphic" in2="effect1_dropShadow_111_839" result="shape"/>
</filter>
<clipPath id="clip0_111_839">
<rect width="390" height="844" fill="white"/>
</clipPath>
</defs>
</svg>
